<svg width="1280" height="832" viewBox="0 0 1280 832" fill="none" xmlns="http://www.w3.org/2000/svg">
<path d="M951.249 590.913C951.249 617.426 936.263 638.539 906.292 654.251C922.64 657.688 934.901 662.966 943.075 670.085C951.249 677.204 955.46 687.883 955.707 702.122C955.707 709.978 953.602 718.325 949.391 727.163C945.428 735.755 940.598 742.874 934.901 748.521C929.452 754.167 921.03 759.077 909.636 763.25C898.49 767.424 885.609 769.51 870.995 769.51C856.629 769.51 844.492 767.669 834.584 763.987C824.924 760.304 817.741 756.131 813.035 751.466C808.328 746.557 804.737 740.665 802.26 733.791C800.03 726.672 798.792 721.516 798.544 718.325C798.544 714.888 798.544 712.065 798.544 709.855C798.544 707.4 798.544 704.823 798.544 702.122C800.278 677.818 819.598 657.442 856.505 640.994C830.002 633.629 816.75 619.022 816.75 597.173C816.75 581.216 823.562 568.941 837.185 560.349C851.056 551.511 867.032 547.092 885.114 547.092C903.444 547.092 919.048 550.775 931.929 558.14C944.809 565.259 951.249 576.183 951.249 590.913ZM859.478 642.467C838.423 659.897 827.896 681.623 827.896 707.646C827.896 717.956 829.135 727.163 831.612 735.264C834.089 743.365 836.937 749.503 840.157 753.676C843.625 757.604 847.96 760.673 853.161 762.882C858.363 765.091 861.831 766.319 863.565 766.564C865.546 766.564 869.014 766.564 873.968 766.564C879.169 766.564 884.743 765.46 890.687 763.25C896.88 760.795 901.834 757.727 905.549 754.044C909.512 750.116 912.856 745.943 915.581 741.524C918.553 736.86 920.658 732.195 921.897 727.531C924.869 715.993 926.355 706.418 926.355 698.808C926.355 690.952 925.241 684.078 923.012 678.186C920.782 672.049 916.819 667.016 911.122 663.088C905.673 659.161 900.595 656.215 895.889 654.251C891.183 652.287 884.743 650.2 876.569 647.991C868.395 645.536 862.698 643.694 859.478 642.467ZM903.32 653.146C915.705 636.452 921.897 615.463 921.897 590.177C921.897 579.866 919.172 570.66 913.723 562.558C908.274 554.212 897.994 550.038 882.885 550.038C871.738 550.038 863.069 554.334 856.877 562.927C849.941 572.746 846.473 585.267 846.473 600.487C846.473 617.672 850.313 629.087 857.991 634.734C862.45 638.171 866.785 640.748 870.995 642.467C875.454 643.94 880.903 645.658 887.343 647.622C894.031 649.341 899.357 651.182 903.32 653.146Z" fill="#EEF4FF"/>
<path d="M450.349 590.913C450.349 617.426 435.363 638.539 405.392 654.251C421.74 657.688 434.001 662.966 442.175 670.085C450.349 677.204 454.56 687.883 454.807 702.122C454.807 709.978 452.702 718.325 448.491 727.163C444.528 735.755 439.698 742.874 434.001 748.521C428.552 754.167 420.13 759.077 408.736 763.25C397.59 767.424 384.709 769.51 370.095 769.51C355.729 769.51 343.592 767.669 333.684 763.987C324.024 760.304 316.841 756.131 312.135 751.466C307.428 746.557 303.837 740.665 301.36 733.791C299.13 726.672 297.892 721.516 297.644 718.325C297.644 714.888 297.644 712.065 297.644 709.855C297.644 707.4 297.644 704.823 297.644 702.122C299.378 677.818 318.698 657.442 355.605 640.994C329.102 633.629 315.85 619.022 315.85 597.173C315.85 581.216 322.662 568.941 336.285 560.349C350.156 551.511 366.132 547.092 384.214 547.092C402.544 547.092 418.148 550.775 431.029 558.14C443.909 565.259 450.349 576.183 450.349 590.913ZM358.578 642.467C337.523 659.897 326.996 681.623 326.996 707.646C326.996 717.956 328.235 727.163 330.712 735.264C333.189 743.365 336.037 749.503 339.257 753.676C342.725 757.604 347.06 760.673 352.261 762.882C357.463 765.091 360.931 766.319 362.665 766.564C364.646 766.564 368.114 766.564 373.068 766.564C378.269 766.564 383.843 765.46 389.787 763.25C395.98 760.795 400.934 757.727 404.649 754.044C408.612 750.116 411.956 745.943 414.681 741.524C417.653 736.86 419.758 732.195 420.997 727.531C423.969 715.993 425.455 706.418 425.455 698.808C425.455 690.952 424.341 684.078 422.112 678.186C419.882 672.049 415.919 667.016 410.222 663.088C404.773 659.161 399.695 656.215 394.989 654.251C390.283 652.287 383.843 650.2 375.669 647.991C367.495 645.536 361.798 643.694 358.578 642.467ZM402.42 653.146C414.805 636.452 420.997 615.463 420.997 590.177C420.997 579.866 418.272 570.66 412.823 562.558C407.374 554.212 397.094 550.038 381.985 550.038C370.838 550.038 362.169 554.334 355.977 562.927C349.041 572.746 345.573 585.267 345.573 600.487C345.573 617.672 349.413 629.087 357.091 634.734C361.55 638.171 365.885 640.748 370.095 642.467C374.554 643.94 380.003 645.658 386.443 647.622C393.131 649.341 398.457 651.182 402.42 653.146Z" fill="#EEF4FF"/>
<path d="M951.249 144.782C951.249 171.624 936.263 192.998 906.292 208.905C922.64 212.384 934.901 217.728 943.075 224.936C951.249 232.143 955.46 242.955 955.707 257.37C955.707 265.323 953.602 273.773 949.391 282.721C945.428 291.419 940.598 298.627 934.901 304.343C929.452 310.06 921.03 315.03 909.636 319.256C898.49 323.481 885.609 325.593 870.995 325.593C856.629 325.593 844.492 323.729 834.584 320.001C824.924 316.273 817.741 312.048 813.035 307.326C808.328 302.355 804.737 296.39 802.26 289.431C800.03 282.223 798.792 277.004 798.544 273.773C798.544 270.294 798.544 267.436 798.544 265.199C798.544 262.713 798.544 260.104 798.544 257.37C800.278 232.764 819.598 212.136 856.505 195.484C830.002 188.028 816.75 173.24 816.75 151.12C816.75 134.965 823.562 122.538 837.185 113.839C851.056 104.892 867.032 100.418 885.114 100.418C903.444 100.418 919.048 104.146 931.929 111.602C944.809 118.81 951.249 129.87 951.249 144.782ZM859.478 196.975C838.423 214.621 827.896 236.617 827.896 262.962C827.896 273.4 829.135 282.721 831.612 290.922C834.089 299.124 836.937 305.338 840.157 309.563C843.625 313.539 847.96 316.646 853.161 318.883C858.363 321.12 861.831 322.362 863.565 322.611C865.546 322.611 869.014 322.611 873.968 322.611C879.169 322.611 884.743 321.492 890.687 319.256C896.88 316.77 901.834 313.664 905.549 309.935C909.512 305.959 912.856 301.734 915.581 297.26C918.553 292.538 920.658 287.816 921.897 283.093C924.869 271.412 926.355 261.719 926.355 254.014C926.355 246.061 925.241 239.102 923.012 233.137C920.782 226.924 916.819 221.829 911.122 217.852C905.673 213.876 900.595 210.893 895.889 208.905C891.183 206.917 884.743 204.804 876.569 202.567C868.395 200.082 862.698 198.218 859.478 196.975ZM903.32 207.786C915.705 190.886 921.897 169.636 921.897 144.036C921.897 133.598 919.172 124.278 913.723 116.076C908.274 107.626 897.994 103.401 882.885 103.401C871.738 103.401 863.069 107.75 856.877 116.449C849.941 126.39 846.473 139.066 846.473 154.475C846.473 171.873 850.313 183.43 857.991 189.146C862.45 192.626 866.785 195.235 870.995 196.975C875.454 198.466 880.903 200.206 887.343 202.194C894.031 203.934 899.357 205.798 903.32 207.786Z" fill="#EEF4FF"/>
<path d="M450.349 144.782C450.349 171.624 435.363 192.998 405.392 208.905C421.74 212.384 434.001 217.728 442.175 224.936C450.349 232.143 454.56 242.955 454.807 257.37C454.807 265.323 452.702 273.773 448.491 282.721C444.528 291.419 439.698 298.627 434.001 304.343C428.552 310.06 420.13 315.03 408.736 319.256C397.59 323.481 384.709 325.593 370.095 325.593C355.729 325.593 343.592 323.729 333.684 320.001C324.024 316.273 316.841 312.048 312.135 307.326C307.428 302.355 303.837 296.39 301.36 289.431C299.13 282.223 297.892 277.004 297.644 273.773C297.644 270.294 297.644 267.436 297.644 265.199C297.644 262.713 297.644 260.104 297.644 257.37C299.378 232.764 318.698 212.136 355.605 195.484C329.102 188.028 315.85 173.24 315.85 151.12C315.85 134.965 322.662 122.538 336.285 113.839C350.156 104.892 366.132 100.418 384.214 100.418C402.544 100.418 418.148 104.146 431.029 111.602C443.909 118.81 450.349 129.87 450.349 144.782ZM358.578 196.975C337.523 214.621 326.996 236.617 326.996 262.962C326.996 273.4 328.235 282.721 330.712 290.922C333.189 299.124 336.037 305.338 339.257 309.563C342.725 313.539 347.06 316.646 352.261 318.883C357.463 321.12 360.931 322.362 362.665 322.611C364.646 322.611 368.114 322.611 373.068 322.611C378.269 322.611 383.843 321.492 389.787 319.256C395.98 316.77 400.934 313.664 404.649 309.935C408.612 305.959 411.956 301.734 414.681 297.26C417.653 292.538 419.758 287.816 420.997 283.093C423.969 271.412 425.455 261.719 425.455 254.014C425.455 246.061 424.341 239.102 422.112 233.137C419.882 226.924 415.919 221.829 410.222 217.852C404.773 213.876 399.695 210.893 394.989 208.905C390.283 206.917 383.843 204.804 375.669 202.567C367.495 200.082 361.798 198.218 358.578 196.975ZM402.42 207.786C414.805 190.886 420.997 169.636 420.997 144.036C420.997 133.598 418.272 124.278 412.823 116.076C407.374 107.626 397.094 103.401 381.985 103.401C370.838 103.401 362.169 107.75 355.977 116.449C349.041 126.39 345.573 139.066 345.573 154.475C345.573 171.873 349.413 183.43 357.091 189.146C361.55 192.626 365.885 195.235 370.095 196.975C374.554 198.466 380.003 200.206 386.443 202.194C393.131 203.934 398.457 205.798 402.42 207.786Z" fill="#EEF4FF"/>
<path d="M1042.26 369.233C1042.26 395.637 1027.37 416.662 997.57 432.309C1013.82 435.732 1026.01 440.988 1034.14 448.078C1042.26 455.168 1046.45 465.803 1046.7 479.983C1046.7 487.806 1044.6 496.118 1040.42 504.92C1036.48 513.476 1031.68 520.566 1026.01 526.189C1020.59 531.812 1012.22 536.702 1000.89 540.858C989.814 545.014 977.009 547.092 962.48 547.092C948.198 547.092 936.132 545.259 926.282 541.592C916.678 537.924 909.537 533.768 904.858 529.123C900.179 524.233 896.609 518.366 894.146 511.52C891.93 504.431 890.699 499.296 890.453 496.118C890.453 492.696 890.453 489.884 890.453 487.684C890.453 485.239 890.453 482.672 890.453 479.983C892.176 455.779 911.384 435.487 948.075 419.107C921.726 411.773 908.552 397.226 908.552 375.467C908.552 359.576 915.324 347.352 928.867 338.795C942.657 329.994 958.54 325.593 976.516 325.593C994.738 325.593 1010.25 329.261 1023.06 336.595C1035.86 343.685 1042.26 354.564 1042.26 369.233ZM951.03 420.574C930.098 437.932 919.633 459.568 919.633 485.483C919.633 495.751 920.864 504.92 923.327 512.987C925.789 521.055 928.621 527.167 931.822 531.323C935.27 535.235 939.579 538.291 944.75 540.491C949.921 542.692 953.369 543.914 955.093 544.159C957.063 544.159 960.51 544.159 965.435 544.159C970.606 544.159 976.147 543.058 982.057 540.858C988.213 538.413 993.138 535.357 996.832 531.69C1000.77 527.778 1004.1 523.622 1006.8 519.222C1009.76 514.576 1011.85 509.931 1013.08 505.286C1016.04 493.796 1017.52 484.261 1017.52 476.682C1017.52 468.859 1016.41 462.013 1014.19 456.146C1011.98 450.034 1008.04 445.022 1002.37 441.11C996.955 437.199 991.907 434.265 987.228 432.309C982.549 430.353 976.147 428.275 968.021 426.075C959.894 423.63 954.231 421.796 951.03 420.574ZM994.615 431.209C1006.93 414.584 1013.08 393.681 1013.08 368.5C1013.08 358.231 1010.38 349.063 1004.96 340.996C999.54 332.683 989.321 328.527 974.3 328.527C963.219 328.527 954.6 332.806 948.444 341.362C941.549 351.142 938.102 363.61 938.102 378.768C938.102 395.881 941.918 407.25 949.552 412.873C953.985 416.296 958.294 418.863 962.48 420.574C966.912 422.041 972.33 423.752 978.732 425.708C985.381 427.419 990.675 429.253 994.615 431.209Z" fill="#EEF4FF"/>
<path d="M538.685 369.233C538.685 395.637 524.05 416.662 494.78 432.309C510.746 435.732 522.72 440.988 530.702 448.078C538.685 455.168 542.798 465.803 543.039 479.983C543.039 487.806 540.983 496.118 536.871 504.92C533.001 513.476 528.283 520.566 522.72 526.189C517.398 531.812 509.173 536.702 498.046 540.858C487.16 545.014 474.581 547.092 460.309 547.092C446.279 547.092 434.425 545.259 424.749 541.592C415.315 537.924 408.3 533.768 403.704 529.123C399.108 524.233 395.6 518.366 393.181 511.52C391.004 504.431 389.795 499.296 389.553 496.118C389.553 492.696 389.553 489.884 389.553 487.684C389.553 485.239 389.553 482.672 389.553 479.983C391.246 455.779 410.114 435.487 446.158 419.107C420.274 411.773 407.332 397.226 407.332 375.467C407.332 359.576 413.985 347.352 427.289 338.795C440.836 329.994 456.439 325.593 474.097 325.593C491.998 325.593 507.238 329.261 519.817 336.595C532.396 343.685 538.685 354.564 538.685 369.233ZM449.061 420.574C428.499 437.932 418.218 459.568 418.218 485.483C418.218 495.751 419.428 504.92 421.847 512.987C424.266 521.055 427.047 527.167 430.192 531.323C433.579 535.235 437.812 538.291 442.892 540.491C447.972 542.692 451.359 543.914 453.052 544.159C454.987 544.159 458.374 544.159 463.212 544.159C468.292 544.159 473.735 543.058 479.54 540.858C485.588 538.413 490.426 535.357 494.054 531.69C497.925 527.778 501.19 523.622 503.851 519.222C506.754 514.576 508.81 509.931 510.02 505.286C512.923 493.796 514.374 484.261 514.374 476.682C514.374 468.859 513.285 462.013 511.108 456.146C508.931 450.034 505.061 445.022 499.497 441.11C494.175 437.199 489.216 434.265 484.62 432.309C480.024 430.353 473.735 428.275 465.752 426.075C457.769 423.63 452.205 421.796 449.061 420.574ZM491.877 431.209C503.972 414.584 510.02 393.681 510.02 368.5C510.02 358.231 507.359 349.063 502.037 340.996C496.715 332.683 486.676 328.527 471.92 328.527C461.035 328.527 452.568 332.806 446.521 341.362C439.747 351.142 436.361 363.61 436.361 378.768C436.361 395.881 440.11 407.25 447.609 412.873C451.963 416.296 456.197 418.863 460.309 420.574C464.663 422.041 469.985 423.752 476.274 425.708C482.806 427.419 488.007 429.253 491.877 431.209Z" fill="#EEF4FF"/>
<path d="M1042.26 -78.1791C1042.26 -51.6657 1027.37 -30.5532 997.57 -14.8416C1013.82 -11.4046 1026.01 -6.12651 1034.14 0.992836C1042.26 8.11217 1046.45 18.7912 1046.7 33.0299C1046.7 40.8857 1044.6 49.2325 1040.42 58.0703C1036.48 66.6626 1031.68 73.782 1026.01 79.4284C1020.59 85.0747 1012.22 89.9846 1000.89 94.158C989.814 98.3314 977.009 100.418 962.48 100.418C948.198 100.418 936.132 98.5769 926.282 94.8945C916.678 91.2121 909.537 87.0387 904.858 82.3743C900.179 77.4644 896.609 71.5725 894.146 64.6987C891.93 57.5793 890.699 52.424 890.453 49.2325C890.453 45.7956 890.453 42.9724 890.453 40.763C890.453 38.308 890.453 35.7303 890.453 33.0299C892.176 8.72591 911.384 -11.6501 948.075 -28.0983C921.726 -35.4631 908.552 -50.07 908.552 -71.919C908.552 -87.8762 915.324 -100.151 928.867 -108.743C942.657 -117.581 958.54 -122 976.516 -122C994.738 -122 1010.25 -118.317 1023.06 -110.953C1035.86 -103.833 1042.26 -92.9088 1042.26 -78.1791ZM951.03 -26.6253C930.098 -9.19518 919.633 12.5311 919.633 38.5535C919.633 48.8643 920.864 58.0703 923.327 66.1716C925.789 74.273 928.621 80.4103 931.822 84.5837C935.27 88.5116 939.579 91.5803 944.75 93.7898C949.921 95.9992 953.369 97.2267 955.093 97.4722C957.063 97.4722 960.51 97.4722 965.435 97.4722C970.606 97.4722 976.147 96.3675 982.057 94.158C988.213 91.7031 993.138 88.6344 996.832 84.952C1000.77 81.0241 1004.1 76.8506 1006.8 72.4317C1009.76 67.7673 1011.85 63.103 1013.08 58.4386C1016.04 46.9003 1017.52 37.326 1017.52 29.7157C1017.52 21.8599 1016.41 14.986 1014.19 9.09416C1011.98 2.95679 1008.04 -2.07584 1002.37 -6.00375C996.955 -9.93167 991.907 -12.8776 987.228 -14.8416C982.549 -16.8055 976.147 -18.8922 968.021 -21.1016C959.894 -23.5566 954.231 -25.3978 951.03 -26.6253ZM994.615 -15.9463C1006.93 -32.6399 1013.08 -53.6297 1013.08 -78.9156C1013.08 -89.2264 1010.38 -98.4324 1004.96 -106.534C999.54 -114.881 989.321 -119.054 974.3 -119.054C963.219 -119.054 954.6 -114.758 948.444 -106.166C941.549 -96.3457 938.102 -83.8255 938.102 -68.6049C938.102 -51.4202 941.918 -40.0047 949.552 -34.3584C953.985 -30.9214 958.294 -28.3438 962.48 -26.6253C966.912 -25.1523 972.33 -23.4339 978.732 -21.4699C985.381 -19.7514 990.675 -17.9102 994.615 -15.9463Z" fill="#EEF4FF"/>
<path d="M538.685 -78.1791C538.685 -51.6657 524.05 -30.5532 494.78 -14.8416C510.746 -11.4046 522.72 -6.12651 530.702 0.992836C538.685 8.11217 542.798 18.7912 543.039 33.0299C543.039 40.8857 540.983 49.2325 536.871 58.0703C533.001 66.6626 528.283 73.782 522.72 79.4284C517.398 85.0747 509.173 89.9846 498.046 94.158C487.16 98.3314 474.581 100.418 460.309 100.418C446.279 100.418 434.425 98.5769 424.749 94.8945C415.315 91.2121 408.3 87.0387 403.704 82.3743C399.108 77.4644 395.6 71.5725 393.181 64.6987C391.004 57.5793 389.795 52.424 389.553 49.2325C389.553 45.7956 389.553 42.9724 389.553 40.763C389.553 38.308 389.553 35.7303 389.553 33.0299C391.246 8.72591 410.114 -11.6501 446.158 -28.0983C420.274 -35.4631 407.332 -50.07 407.332 -71.919C407.332 -87.8762 413.985 -100.151 427.289 -108.743C440.836 -117.581 456.439 -122 474.097 -122C491.998 -122 507.238 -118.317 519.817 -110.953C532.396 -103.833 538.685 -92.9088 538.685 -78.1791ZM449.061 -26.6253C428.499 -9.19518 418.218 12.5311 418.218 38.5535C418.218 48.8643 419.428 58.0703 421.847 66.1716C424.266 74.273 427.047 80.4103 430.192 84.5837C433.579 88.5116 437.812 91.5803 442.892 93.7898C447.972 95.9992 451.359 97.2267 453.052 97.4722C454.987 97.4722 458.374 97.4722 463.212 97.4722C468.292 97.4722 473.735 96.3675 479.54 94.158C485.588 91.7031 490.426 88.6344 494.054 84.952C497.925 81.0241 501.19 76.8506 503.851 72.4317C506.754 67.7673 508.81 63.103 510.02 58.4386C512.923 46.9003 514.374 37.326 514.374 29.7157C514.374 21.8599 513.285 14.986 511.108 9.09416C508.931 2.95679 505.061 -2.07584 499.497 -6.00375C494.175 -9.93167 489.216 -12.8776 484.62 -14.8416C480.024 -16.8055 473.735 -18.8922 465.752 -21.1016C457.769 -23.5566 452.205 -25.3978 449.061 -26.6253ZM491.877 -15.9463C503.972 -32.6399 510.02 -53.6297 510.02 -78.9156C510.02 -89.2264 507.359 -98.4324 502.037 -106.534C496.715 -114.881 486.676 -119.054 471.92 -119.054C461.035 -119.054 452.568 -114.758 446.521 -106.166C439.747 -96.3457 436.361 -83.8255 436.361 -68.6049C436.361 -51.4202 440.11 -40.0047 447.609 -34.3584C451.963 -30.9214 456.197 -28.3438 460.309 -26.6253C464.663 -25.1523 469.985 -23.4339 476.274 -21.4699C482.806 -19.7514 488.007 -17.9102 491.877 -15.9463Z" fill="#EEF4FF"/>
<path d="M1119.44 590.913C1119.44 617.426 1104.46 638.539 1074.48 654.251C1090.83 657.688 1103.09 662.966 1111.27 670.085C1119.44 677.204 1123.65 687.883 1123.9 702.122C1123.9 709.978 1121.79 718.325 1117.58 727.163C1113.62 735.755 1108.79 742.874 1103.09 748.521C1097.64 754.167 1089.22 759.077 1077.83 763.25C1066.68 767.424 1053.8 769.51 1039.19 769.51C1024.82 769.51 1012.68 767.669 1002.78 763.987C993.116 760.304 985.933 756.131 981.227 751.466C976.52 746.557 972.929 740.665 970.452 733.791C968.223 726.672 966.984 721.516 966.736 718.325C966.736 714.888 966.736 712.065 966.736 709.855C966.736 707.4 966.736 704.823 966.736 702.122C968.47 677.818 987.791 657.442 1024.7 640.994C998.194 633.629 984.942 619.022 984.942 597.173C984.942 581.216 991.754 568.941 1005.38 560.349C1019.25 551.511 1035.22 547.092 1053.31 547.092C1071.64 547.092 1087.24 550.775 1100.12 558.14C1113 565.259 1119.44 576.183 1119.44 590.913ZM1027.67 642.467C1006.62 659.897 996.088 681.623 996.088 707.646C996.088 717.956 997.327 727.163 999.804 735.264C1002.28 743.365 1005.13 749.503 1008.35 753.676C1011.82 757.604 1016.15 760.673 1021.35 762.882C1026.56 765.091 1030.02 766.319 1031.76 766.564C1033.74 766.564 1037.21 766.564 1042.16 766.564C1047.36 766.564 1052.93 765.46 1058.88 763.25C1065.07 760.795 1070.03 757.727 1073.74 754.044C1077.7 750.116 1081.05 745.943 1083.77 741.524C1086.75 736.86 1088.85 732.195 1090.09 727.531C1093.06 715.993 1094.55 706.418 1094.55 698.808C1094.55 690.952 1093.43 684.078 1091.2 678.186C1088.97 672.049 1085.01 667.016 1079.31 663.088C1073.86 659.161 1068.79 656.215 1064.08 654.251C1059.37 652.287 1052.93 650.2 1044.76 647.991C1036.59 645.536 1030.89 643.694 1027.67 642.467ZM1071.51 653.146C1083.9 636.452 1090.09 615.463 1090.09 590.177C1090.09 579.866 1087.36 570.66 1081.92 562.558C1076.47 554.212 1066.19 550.038 1051.08 550.038C1039.93 550.038 1031.26 554.334 1025.07 562.927C1018.13 572.746 1014.67 585.267 1014.67 600.487C1014.67 617.672 1018.5 629.087 1026.18 634.734C1030.64 638.171 1034.98 640.748 1039.19 642.467C1043.65 643.94 1049.1 645.658 1055.54 647.622C1062.22 649.341 1067.55 651.182 1071.51 653.146Z" fill="#EEF4FF"/>
<path d="M614.076 590.913C614.076 617.426 599.529 638.539 570.434 654.251C586.304 657.688 598.206 662.966 606.141 670.085C614.076 677.204 618.164 687.883 618.404 702.122C618.404 709.978 616.36 718.325 612.273 727.163C608.425 735.755 603.736 742.874 598.206 748.521C592.916 754.167 584.741 759.077 573.68 763.25C562.859 767.424 550.356 769.51 536.169 769.51C522.223 769.51 510.441 767.669 500.822 763.987C491.445 760.304 484.472 756.131 479.903 751.466C475.334 746.557 471.848 740.665 469.443 733.791C467.279 726.672 466.077 721.516 465.836 718.325C465.836 714.888 465.836 712.065 465.836 709.855C465.836 707.4 465.836 704.823 465.836 702.122C467.52 677.818 486.275 657.442 522.103 640.994C496.374 633.629 483.51 619.022 483.51 597.173C483.51 581.216 490.122 568.941 503.347 560.349C516.813 551.511 532.322 547.092 549.875 547.092C567.668 547.092 582.817 550.775 595.321 558.14C607.824 565.259 614.076 576.183 614.076 590.913ZM524.988 642.467C504.549 659.897 494.33 681.623 494.33 707.646C494.33 717.956 495.532 727.163 497.937 735.264C500.341 743.365 503.107 749.503 506.233 753.676C509.599 757.604 513.807 760.673 518.856 762.882C523.906 765.091 527.272 766.319 528.955 766.564C530.879 766.564 534.245 766.564 539.055 766.564C544.104 766.564 549.514 765.46 555.285 763.25C561.296 760.795 566.106 757.727 569.712 754.044C573.56 750.116 576.806 745.943 579.451 741.524C582.336 736.86 584.38 732.195 585.582 727.531C588.468 715.993 589.91 706.418 589.91 698.808C589.91 690.952 588.828 684.078 586.664 678.186C584.5 672.049 580.653 667.016 575.123 663.088C569.833 659.161 564.903 656.215 560.335 654.251C555.766 652.287 549.514 650.2 541.579 647.991C533.644 645.536 528.114 643.694 524.988 642.467ZM567.548 653.146C579.571 636.452 585.582 615.463 585.582 590.177C585.582 579.866 582.937 570.66 577.647 562.558C572.357 554.212 562.379 550.038 547.711 550.038C536.89 550.038 528.475 554.334 522.463 562.927C515.731 572.746 512.364 585.267 512.364 600.487C512.364 617.672 516.091 629.087 523.545 634.734C527.873 638.171 532.081 640.748 536.169 642.467C540.497 643.94 545.787 645.658 552.039 647.622C558.531 649.341 563.701 651.182 567.548 653.146Z" fill="#EEF4FF"/>
<path d="M1119.44 144.782C1119.44 171.624 1104.46 192.998 1074.48 208.905C1090.83 212.384 1103.09 217.728 1111.27 224.936C1119.44 232.143 1123.65 242.955 1123.9 257.37C1123.9 265.323 1121.79 273.773 1117.58 282.721C1113.62 291.419 1108.79 298.627 1103.09 304.343C1097.64 310.06 1089.22 315.03 1077.83 319.256C1066.68 323.481 1053.8 325.593 1039.19 325.593C1024.82 325.593 1012.68 323.729 1002.78 320.001C993.116 316.273 985.933 312.048 981.227 307.326C976.52 302.355 972.929 296.39 970.452 289.431C968.223 282.223 966.984 277.004 966.736 273.773C966.736 270.294 966.736 267.436 966.736 265.199C966.736 262.713 966.736 260.104 966.736 257.37C968.47 232.764 987.791 212.136 1024.7 195.484C998.194 188.028 984.942 173.24 984.942 151.12C984.942 134.965 991.754 122.538 1005.38 113.839C1019.25 104.892 1035.22 100.418 1053.31 100.418C1071.64 100.418 1087.24 104.146 1100.12 111.602C1113 118.81 1119.44 129.87 1119.44 144.782ZM1027.67 196.975C1006.62 214.621 996.088 236.617 996.088 262.962C996.088 273.4 997.327 282.721 999.804 290.922C1002.28 299.124 1005.13 305.338 1008.35 309.563C1011.82 313.539 1016.15 316.646 1021.35 318.883C1026.56 321.12 1030.02 322.362 1031.76 322.611C1033.74 322.611 1037.21 322.611 1042.16 322.611C1047.36 322.611 1052.93 321.492 1058.88 319.256C1065.07 316.77 1070.03 313.664 1073.74 309.935C1077.7 305.959 1081.05 301.734 1083.77 297.26C1086.75 292.538 1088.85 287.816 1090.09 283.093C1093.06 271.412 1094.55 261.719 1094.55 254.014C1094.55 246.061 1093.43 239.102 1091.2 233.137C1088.97 226.924 1085.01 221.829 1079.31 217.852C1073.86 213.876 1068.79 210.893 1064.08 208.905C1059.37 206.917 1052.93 204.804 1044.76 202.567C1036.59 200.082 1030.89 198.218 1027.67 196.975ZM1071.51 207.786C1083.9 190.886 1090.09 169.636 1090.09 144.036C1090.09 133.598 1087.36 124.278 1081.92 116.076C1076.47 107.626 1066.19 103.401 1051.08 103.401C1039.93 103.401 1031.26 107.75 1025.07 116.449C1018.13 126.39 1014.67 139.066 1014.67 154.475C1014.67 171.873 1018.5 183.43 1026.18 189.146C1030.64 192.626 1034.98 195.235 1039.19 196.975C1043.65 198.466 1049.1 200.206 1055.54 202.194C1062.22 203.934 1067.55 205.798 1071.51 207.786Z" fill="#EEF4FF"/>
<path d="M614.076 144.782C614.076 171.624 599.529 192.998 570.434 208.905C586.304 212.384 598.206 217.728 606.141 224.936C614.076 232.143 618.164 242.955 618.404 257.37C618.404 265.323 616.36 273.773 612.273 282.721C608.425 291.419 603.736 298.627 598.206 304.343C592.916 310.06 584.741 315.03 573.68 319.256C562.859 323.481 550.356 325.593 536.169 325.593C522.223 325.593 510.441 323.729 500.822 320.001C491.445 316.273 484.472 312.048 479.903 307.326C475.334 302.355 471.848 296.39 469.443 289.431C467.279 282.223 466.077 277.004 465.836 273.773C465.836 270.294 465.836 267.436 465.836 265.199C465.836 262.713 465.836 260.104 465.836 257.37C467.52 232.764 486.275 212.136 522.103 195.484C496.374 188.028 483.51 173.24 483.51 151.12C483.51 134.965 490.122 122.538 503.347 113.839C516.813 104.892 532.322 100.418 549.875 100.418C567.668 100.418 582.817 104.146 595.321 111.602C607.824 118.81 614.076 129.87 614.076 144.782ZM524.988 196.975C504.549 214.621 494.33 236.617 494.33 262.962C494.33 273.4 495.532 282.721 497.937 290.922C500.341 299.124 503.107 305.338 506.233 309.563C509.599 313.539 513.807 316.646 518.856 318.883C523.906 321.12 527.272 322.362 528.955 322.611C530.879 322.611 534.245 322.611 539.055 322.611C544.104 322.611 549.514 321.492 555.285 319.256C561.296 316.77 566.106 313.664 569.712 309.935C573.56 305.959 576.806 301.734 579.451 297.26C582.336 292.538 584.38 287.816 585.582 283.093C588.468 271.412 589.91 261.719 589.91 254.014C589.91 246.061 588.828 239.102 586.664 233.137C584.5 226.924 580.653 221.829 575.123 217.852C569.833 213.876 564.903 210.893 560.335 208.905C555.766 206.917 549.514 204.804 541.579 202.567C533.644 200.082 528.114 198.218 524.988 196.975ZM567.548 207.786C579.571 190.886 585.582 169.636 585.582 144.036C585.582 133.598 582.937 124.278 577.647 116.076C572.357 107.626 562.379 103.401 547.711 103.401C536.89 103.401 528.475 107.75 522.463 116.449C515.731 126.39 512.364 139.066 512.364 154.475C512.364 171.873 516.091 183.43 523.545 189.146C527.873 192.626 532.081 195.235 536.169 196.975C540.497 198.466 545.787 200.206 552.039 202.194C558.531 203.934 563.701 205.798 567.548 207.786Z" fill="#EEF4FF"/>
<path d="M1207.67 369.233C1207.67 395.637 1192.69 416.662 1162.72 432.309C1179.06 435.732 1191.33 440.988 1199.5 448.078C1207.67 455.168 1211.88 465.803 1212.13 479.983C1212.13 487.806 1210.03 496.118 1205.82 504.92C1201.85 513.476 1197.02 520.566 1191.33 526.189C1185.88 531.812 1177.45 536.702 1166.06 540.858C1154.91 545.014 1142.03 547.092 1127.42 547.092C1113.05 547.092 1100.92 545.259 1091.01 541.592C1081.35 537.924 1074.16 533.768 1069.46 529.123C1064.75 524.233 1061.16 518.366 1058.68 511.52C1056.45 504.431 1055.22 499.296 1054.97 496.118C1054.97 492.696 1054.97 489.884 1054.97 487.684C1054.97 485.239 1054.97 482.672 1054.97 479.983C1056.7 455.779 1076.02 435.487 1112.93 419.107C1086.43 411.773 1073.17 397.226 1073.17 375.467C1073.17 359.576 1079.99 347.352 1093.61 338.795C1107.48 329.994 1123.46 325.593 1141.54 325.593C1159.87 325.593 1175.47 329.261 1188.35 336.595C1201.23 343.685 1207.67 354.564 1207.67 369.233ZM1115.9 420.574C1094.85 437.932 1084.32 459.568 1084.32 485.483C1084.32 495.751 1085.56 504.92 1088.04 512.987C1090.51 521.055 1093.36 527.167 1096.58 531.323C1100.05 535.235 1104.38 538.291 1109.59 540.491C1114.79 542.692 1118.25 543.914 1119.99 544.159C1121.97 544.159 1125.44 544.159 1130.39 544.159C1135.59 544.159 1141.17 543.058 1147.11 540.858C1153.3 538.413 1158.26 535.357 1161.97 531.69C1165.94 527.778 1169.28 523.622 1172 519.222C1174.98 514.576 1177.08 509.931 1178.32 505.286C1181.29 493.796 1182.78 484.261 1182.78 476.682C1182.78 468.859 1181.67 462.013 1179.44 456.146C1177.21 450.034 1173.24 445.022 1167.55 441.11C1162.1 437.199 1157.02 434.265 1152.31 432.309C1147.61 430.353 1141.17 428.275 1132.99 426.075C1124.82 423.63 1119.12 421.796 1115.9 420.574ZM1159.74 431.209C1172.13 414.584 1178.32 393.681 1178.32 368.5C1178.32 358.231 1175.6 349.063 1170.15 340.996C1164.7 332.683 1154.42 328.527 1139.31 328.527C1128.16 328.527 1119.49 332.806 1113.3 341.362C1106.37 351.142 1102.9 363.61 1102.9 378.768C1102.9 395.881 1106.74 407.25 1114.42 412.873C1118.87 416.296 1123.21 418.863 1127.42 420.574C1131.88 422.041 1137.33 423.752 1143.77 425.708C1150.46 427.419 1155.78 429.253 1159.74 431.209Z" fill="#EEF4FF"/>
<path d="M705.88 369.233C705.88 395.637 690.982 416.662 661.186 432.309C677.438 435.732 689.628 440.988 697.754 448.078C705.88 455.168 710.066 465.803 710.312 479.983C710.312 487.806 708.219 496.118 704.033 504.92C700.093 513.476 695.291 520.566 689.628 526.189C684.21 531.812 675.838 536.702 664.51 540.858C653.429 545.014 640.624 547.092 626.096 547.092C611.813 547.092 599.747 545.259 589.897 541.592C580.294 537.924 573.153 533.768 568.474 529.123C563.795 524.233 560.225 518.366 557.762 511.52C555.546 504.431 554.315 499.296 554.068 496.118C554.068 492.696 554.068 489.884 554.068 487.684C554.068 485.239 554.068 482.672 554.068 479.983C555.792 455.779 574.999 435.487 611.69 419.107C585.342 411.773 572.168 397.226 572.168 375.467C572.168 359.576 578.939 347.352 592.483 338.795C606.273 329.994 622.156 325.593 640.132 325.593C658.354 325.593 673.868 329.261 686.673 336.595C699.478 343.685 705.88 354.564 705.88 369.233ZM614.645 420.574C593.714 437.932 583.249 459.568 583.249 485.483C583.249 495.751 584.48 504.92 586.942 512.987C589.405 521.055 592.237 527.167 595.438 531.323C598.885 535.235 603.195 538.291 608.366 540.491C613.537 542.692 616.985 543.914 618.708 544.159C620.678 544.159 624.126 544.159 629.051 544.159C634.222 544.159 639.763 543.058 645.672 540.858C651.829 538.413 656.754 535.357 660.447 531.69C664.387 527.778 667.712 523.622 670.42 519.222C673.375 514.576 675.468 509.931 676.7 505.286C679.655 493.796 681.132 484.261 681.132 476.682C681.132 468.859 680.024 462.013 677.808 456.146C675.592 450.034 671.652 445.022 665.988 441.11C660.57 437.199 655.522 434.265 650.844 432.309C646.165 430.353 639.763 428.275 631.636 426.075C623.51 423.63 617.846 421.796 614.645 420.574ZM658.231 431.209C670.543 414.584 676.7 393.681 676.7 368.5C676.7 358.231 673.991 349.063 668.573 340.996C663.156 332.683 652.937 328.527 637.916 328.527C626.835 328.527 618.216 332.806 612.06 341.362C605.165 351.142 601.717 363.61 601.717 378.768C601.717 395.881 605.534 407.25 613.168 412.873C617.6 416.296 621.91 418.863 626.096 420.574C630.528 422.041 635.946 423.752 642.348 425.708C648.997 427.419 654.291 429.253 658.231 431.209Z" fill="#EEF4FF"/>
<path d="M1207.67 -78.1791C1207.67 -51.6657 1192.69 -30.5532 1162.72 -14.8416C1179.06 -11.4046 1191.33 -6.12651 1199.5 0.992836C1207.67 8.11217 1211.88 18.7912 1212.13 33.0299C1212.13 40.8857 1210.03 49.2325 1205.82 58.0703C1201.85 66.6626 1197.02 73.782 1191.33 79.4284C1185.88 85.0747 1177.45 89.9846 1166.06 94.158C1154.91 98.3314 1142.03 100.418 1127.42 100.418C1113.05 100.418 1100.92 98.5769 1091.01 94.8945C1081.35 91.2121 1074.16 87.0387 1069.46 82.3743C1064.75 77.4644 1061.16 71.5725 1058.68 64.6987C1056.45 57.5793 1055.22 52.424 1054.97 49.2325C1054.97 45.7956 1054.97 42.9724 1054.97 40.763C1054.97 38.308 1054.97 35.7303 1054.97 33.0299C1056.7 8.72591 1076.02 -11.6501 1112.93 -28.0983C1086.43 -35.4631 1073.17 -50.07 1073.17 -71.919C1073.17 -87.8762 1079.99 -100.151 1093.61 -108.743C1107.48 -117.581 1123.46 -122 1141.54 -122C1159.87 -122 1175.47 -118.317 1188.35 -110.953C1201.23 -103.833 1207.67 -92.9088 1207.67 -78.1791ZM1115.9 -26.6253C1094.85 -9.19518 1084.32 12.5311 1084.32 38.5535C1084.32 48.8643 1085.56 58.0703 1088.04 66.1716C1090.51 74.273 1093.36 80.4103 1096.58 84.5837C1100.05 88.5116 1104.38 91.5803 1109.59 93.7898C1114.79 95.9992 1118.25 97.2267 1119.99 97.4722C1121.97 97.4722 1125.44 97.4722 1130.39 97.4722C1135.59 97.4722 1141.17 96.3675 1147.11 94.158C1153.3 91.7031 1158.26 88.6344 1161.97 84.952C1165.94 81.0241 1169.28 76.8506 1172 72.4317C1174.98 67.7673 1177.08 63.103 1178.32 58.4386C1181.29 46.9003 1182.78 37.326 1182.78 29.7157C1182.78 21.8599 1181.67 14.986 1179.44 9.09416C1177.21 2.95679 1173.24 -2.07584 1167.55 -6.00375C1162.1 -9.93167 1157.02 -12.8776 1152.31 -14.8416C1147.61 -16.8055 1141.17 -18.8922 1132.99 -21.1016C1124.82 -23.5566 1119.12 -25.3978 1115.9 -26.6253ZM1159.74 -15.9463C1172.13 -32.6399 1178.32 -53.6297 1178.32 -78.9156C1178.32 -89.2264 1175.6 -98.4324 1170.15 -106.534C1164.7 -114.881 1154.42 -119.054 1139.31 -119.054C1128.16 -119.054 1119.49 -114.758 1113.3 -106.166C1106.37 -96.3457 1102.9 -83.8255 1102.9 -68.6049C1102.9 -51.4202 1106.74 -40.0047 1114.42 -34.3584C1118.87 -30.9214 1123.21 -28.3438 1127.42 -26.6253C1131.88 -25.1523 1137.33 -23.4339 1143.77 -21.4699C1150.46 -19.7514 1155.78 -17.9102 1159.74 -15.9463Z" fill="#EEF4FF"/>
<path d="M705.88 -78.1791C705.88 -51.6657 690.982 -30.5532 661.186 -14.8416C677.438 -11.4046 689.628 -6.12651 697.754 0.992836C705.88 8.11217 710.066 18.7912 710.312 33.0299C710.312 40.8857 708.219 49.2325 704.033 58.0703C700.093 66.6626 695.291 73.782 689.628 79.4284C684.21 85.0747 675.838 89.9846 664.51 94.158C653.429 98.3314 640.624 100.418 626.096 100.418C611.813 100.418 599.747 98.5769 589.897 94.8945C580.294 91.2121 573.153 87.0387 568.474 82.3743C563.795 77.4644 560.225 71.5725 557.762 64.6987C555.546 57.5793 554.315 52.424 554.068 49.2325C554.068 45.7956 554.068 42.9724 554.068 40.763C554.068 38.308 554.068 35.7303 554.068 33.0299C555.792 8.72591 574.999 -11.6501 611.69 -28.0983C585.342 -35.4631 572.168 -50.07 572.168 -71.919C572.168 -87.8762 578.939 -100.151 592.483 -108.743C606.273 -117.581 622.156 -122 640.132 -122C658.354 -122 673.868 -118.317 686.673 -110.953C699.478 -103.833 705.88 -92.9088 705.88 -78.1791ZM614.645 -26.6253C593.714 -9.19518 583.249 12.5311 583.249 38.5535C583.249 48.8643 584.48 58.0703 586.942 66.1716C589.405 74.273 592.237 80.4103 595.438 84.5837C598.885 88.5116 603.195 91.5803 608.366 93.7898C613.537 95.9992 616.985 97.2267 618.708 97.4722C620.678 97.4722 624.126 97.4722 629.051 97.4722C634.222 97.4722 639.763 96.3675 645.672 94.158C651.829 91.7031 656.754 88.6344 660.447 84.952C664.387 81.0241 667.712 76.8506 670.42 72.4317C673.375 67.7673 675.468 63.103 676.7 58.4386C679.655 46.9003 681.132 37.326 681.132 29.7157C681.132 21.8599 680.024 14.986 677.808 9.09416C675.592 2.95679 671.652 -2.07584 665.988 -6.00375C660.57 -9.93167 655.522 -12.8776 650.844 -14.8416C646.165 -16.8055 639.763 -18.8922 631.636 -21.1016C623.51 -23.5566 617.846 -25.3978 614.645 -26.6253ZM658.231 -15.9463C670.543 -32.6399 676.7 -53.6297 676.7 -78.9156C676.7 -89.2264 673.991 -98.4324 668.573 -106.534C663.156 -114.881 652.937 -119.054 637.916 -119.054C626.835 -119.054 618.216 -114.758 612.06 -106.166C605.165 -96.3457 601.717 -83.8255 601.717 -68.6049C601.717 -51.4202 605.534 -40.0047 613.168 -34.3584C617.6 -30.9214 621.91 -28.3438 626.096 -26.6253C630.528 -25.1523 635.946 -23.4339 642.348 -21.4699C648.997 -19.7514 654.291 -17.9102 658.231 -15.9463Z" fill="#EEF4FF"/>
<path d="M1287.63 590.913C1287.63 617.426 1272.65 638.539 1242.68 654.251C1259.02 657.688 1271.29 662.966 1279.46 670.085C1287.63 677.204 1291.84 687.883 1292.09 702.122C1292.09 709.978 1289.99 718.325 1285.78 727.163C1281.81 735.755 1276.98 742.874 1271.29 748.521C1265.84 754.167 1257.41 759.077 1246.02 763.25C1234.87 767.424 1221.99 769.51 1207.38 769.51C1193.01 769.51 1180.88 767.669 1170.97 763.987C1161.31 760.304 1154.13 756.131 1149.42 751.466C1144.71 746.557 1141.12 740.665 1138.64 733.791C1136.41 726.672 1135.18 721.516 1134.93 718.325C1134.93 714.888 1134.93 712.065 1134.93 709.855C1134.93 707.4 1134.93 704.823 1134.93 702.122C1136.66 677.818 1155.98 657.442 1192.89 640.994C1166.39 633.629 1153.13 619.022 1153.13 597.173C1153.13 581.216 1159.95 568.941 1173.57 560.349C1187.44 551.511 1203.42 547.092 1221.5 547.092C1239.83 547.092 1255.43 550.775 1268.31 558.14C1281.19 565.259 1287.63 576.183 1287.63 590.913ZM1195.86 642.467C1174.81 659.897 1164.28 681.623 1164.28 707.646C1164.28 717.956 1165.52 727.163 1168 735.264C1170.47 743.365 1173.32 749.503 1176.54 753.676C1180.01 757.604 1184.34 760.673 1189.55 762.882C1194.75 765.091 1198.22 766.319 1199.95 766.564C1201.93 766.564 1205.4 766.564 1210.35 766.564C1215.55 766.564 1221.13 765.46 1227.07 763.25C1233.26 760.795 1238.22 757.727 1241.93 754.044C1245.9 750.116 1249.24 745.943 1251.97 741.524C1254.94 736.86 1257.04 732.195 1258.28 727.531C1261.25 715.993 1262.74 706.418 1262.74 698.808C1262.74 690.952 1261.63 684.078 1259.4 678.186C1257.17 672.049 1253.2 667.016 1247.51 663.088C1242.06 659.161 1236.98 656.215 1232.27 654.251C1227.57 652.287 1221.13 650.2 1212.95 647.991C1204.78 645.536 1199.08 643.694 1195.86 642.467ZM1239.7 653.146C1252.09 636.452 1258.28 615.463 1258.28 590.177C1258.28 579.866 1255.56 570.66 1250.11 562.558C1244.66 554.212 1234.38 550.038 1219.27 550.038C1208.12 550.038 1199.45 554.334 1193.26 562.927C1186.33 572.746 1182.86 585.267 1182.86 600.487C1182.86 617.672 1186.7 629.087 1194.38 634.734C1198.83 638.171 1203.17 640.748 1207.38 642.467C1211.84 643.94 1217.29 645.658 1223.73 647.622C1230.42 649.341 1235.74 651.182 1239.7 653.146Z" fill="#EEF4FF"/>
<path d="M786.759 590.913C786.759 617.426 771.861 638.539 742.065 654.251C758.318 657.688 770.507 662.966 778.633 670.085C786.759 677.204 790.945 687.883 791.192 702.122C791.192 709.978 789.099 718.325 784.912 727.163C780.972 735.755 776.171 742.874 770.507 748.521C765.089 754.167 756.717 759.077 745.39 763.25C734.309 767.424 721.504 769.51 706.975 769.51C692.693 769.51 680.627 767.669 670.777 763.987C661.173 760.304 654.032 756.131 649.353 751.466C644.674 746.557 641.104 740.665 638.641 733.791C636.425 726.672 635.194 721.516 634.948 718.325C634.948 714.888 634.948 712.065 634.948 709.855C634.948 707.4 634.948 704.823 634.948 702.122C636.671 677.818 655.879 657.442 692.57 640.994C666.221 633.629 653.047 619.022 653.047 597.173C653.047 581.216 659.819 568.941 673.362 560.349C687.152 551.511 703.035 547.092 721.011 547.092C739.233 547.092 754.747 550.775 767.552 558.14C780.357 565.259 786.759 576.183 786.759 590.913ZM695.525 642.467C674.593 659.897 664.128 681.623 664.128 707.646C664.128 717.956 665.359 727.163 667.822 735.264C670.284 743.365 673.116 749.503 676.317 753.676C679.765 757.604 684.074 760.673 689.245 762.882C694.416 765.091 697.864 766.319 699.588 766.564C701.558 766.564 705.005 766.564 709.93 766.564C715.101 766.564 720.642 765.46 726.552 763.25C732.708 760.795 737.633 757.727 741.327 754.044C745.267 750.116 748.591 745.943 751.3 741.524C754.255 736.86 756.348 732.195 757.579 727.531C760.534 715.993 762.011 706.418 762.011 698.808C762.011 690.952 760.903 684.078 758.687 678.186C756.471 672.049 752.531 667.016 746.867 663.088C741.45 659.161 736.402 656.215 731.723 654.251C727.044 652.287 720.642 650.2 712.516 647.991C704.389 645.536 698.726 643.694 695.525 642.467ZM739.11 653.146C751.423 636.452 757.579 615.463 757.579 590.177C757.579 579.866 754.87 570.66 749.453 562.558C744.035 554.212 733.816 550.038 718.795 550.038C707.714 550.038 699.095 554.334 692.939 562.927C686.044 572.746 682.597 585.267 682.597 600.487C682.597 617.672 686.413 629.087 694.047 634.734C698.479 638.171 702.789 640.748 706.975 642.467C711.407 643.94 716.825 645.658 723.227 647.622C729.876 649.341 735.17 651.182 739.11 653.146Z" fill="#EEF4FF"/>
<path d="M1287.63 144.782C1287.63 171.624 1272.65 192.998 1242.68 208.905C1259.02 212.384 1271.29 217.728 1279.46 224.936C1287.63 232.143 1291.84 242.955 1292.09 257.37C1292.09 265.323 1289.99 273.773 1285.78 282.721C1281.81 291.419 1276.98 298.627 1271.29 304.343C1265.84 310.06 1257.41 315.03 1246.02 319.256C1234.87 323.481 1221.99 325.593 1207.38 325.593C1193.01 325.593 1180.88 323.729 1170.97 320.001C1161.31 316.273 1154.13 312.048 1149.42 307.326C1144.71 302.355 1141.12 296.39 1138.64 289.431C1136.41 282.223 1135.18 277.004 1134.93 273.773C1134.93 270.294 1134.93 267.436 1134.93 265.199C1134.93 262.713 1134.93 260.104 1134.93 257.37C1136.66 232.764 1155.98 212.136 1192.89 195.484C1166.39 188.028 1153.13 173.24 1153.13 151.12C1153.13 134.965 1159.95 122.538 1173.57 113.839C1187.44 104.892 1203.42 100.418 1221.5 100.418C1239.83 100.418 1255.43 104.146 1268.31 111.602C1281.19 118.81 1287.63 129.87 1287.63 144.782ZM1195.86 196.975C1174.81 214.621 1164.28 236.617 1164.28 262.962C1164.28 273.4 1165.52 282.721 1168 290.922C1170.47 299.124 1173.32 305.338 1176.54 309.563C1180.01 313.539 1184.34 316.646 1189.55 318.883C1194.75 321.12 1198.22 322.362 1199.95 322.611C1201.93 322.611 1205.4 322.611 1210.35 322.611C1215.55 322.611 1221.13 321.492 1227.07 319.256C1233.26 316.77 1238.22 313.664 1241.93 309.935C1245.9 305.959 1249.24 301.734 1251.97 297.26C1254.94 292.538 1257.04 287.816 1258.28 283.093C1261.25 271.412 1262.74 261.719 1262.74 254.014C1262.74 246.061 1261.63 239.102 1259.4 233.137C1257.17 226.924 1253.2 221.829 1247.51 217.852C1242.06 213.876 1236.98 210.893 1232.27 208.905C1227.57 206.917 1221.13 204.804 1212.95 202.567C1204.78 200.082 1199.08 198.218 1195.86 196.975ZM1239.7 207.786C1252.09 190.886 1258.28 169.636 1258.28 144.036C1258.28 133.598 1255.56 124.278 1250.11 116.076C1244.66 107.626 1234.38 103.401 1219.27 103.401C1208.12 103.401 1199.45 107.75 1193.26 116.449C1186.33 126.39 1182.86 139.066 1182.86 154.475C1182.86 171.873 1186.7 183.43 1194.38 189.146C1198.83 192.626 1203.17 195.235 1207.38 196.975C1211.84 198.466 1217.29 200.206 1223.73 202.194C1230.42 203.934 1235.74 205.798 1239.7 207.786Z" fill="#EEF4FF"/>
<path d="M786.759 144.782C786.759 171.624 771.861 192.998 742.065 208.905C758.318 212.384 770.507 217.728 778.633 224.936C786.759 232.143 790.945 242.955 791.192 257.37C791.192 265.323 789.099 273.773 784.912 282.721C780.972 291.419 776.171 298.627 770.507 304.343C765.089 310.06 756.717 315.03 745.39 319.256C734.309 323.481 721.504 325.593 706.975 325.593C692.693 325.593 680.627 323.729 670.777 320.001C661.173 316.273 654.032 312.048 649.353 307.326C644.674 302.355 641.104 296.39 638.641 289.431C636.425 282.223 635.194 277.004 634.948 273.773C634.948 270.294 634.948 267.436 634.948 265.199C634.948 262.713 634.948 260.104 634.948 257.37C636.671 232.764 655.879 212.136 692.57 195.484C666.221 188.028 653.047 173.24 653.047 151.12C653.047 134.965 659.819 122.538 673.362 113.839C687.152 104.892 703.035 100.418 721.011 100.418C739.233 100.418 754.747 104.146 767.552 111.602C780.357 118.81 786.759 129.87 786.759 144.782ZM695.525 196.975C674.593 214.621 664.128 236.617 664.128 262.962C664.128 273.4 665.359 282.721 667.822 290.922C670.284 299.124 673.116 305.338 676.317 309.563C679.765 313.539 684.074 316.646 689.245 318.883C694.416 321.12 697.864 322.362 699.588 322.611C701.558 322.611 705.005 322.611 709.93 322.611C715.101 322.611 720.642 321.492 726.552 319.256C732.708 316.77 737.633 313.664 741.327 309.935C745.267 305.959 748.591 301.734 751.3 297.26C754.255 292.538 756.348 287.816 757.579 283.093C760.534 271.412 762.011 261.719 762.011 254.014C762.011 246.061 760.903 239.102 758.687 233.137C756.471 226.924 752.531 221.829 746.867 217.852C741.45 213.876 736.402 210.893 731.723 208.905C727.044 206.917 720.642 204.804 712.516 202.567C704.389 200.082 698.726 198.218 695.525 196.975ZM739.11 207.786C751.423 190.886 757.579 169.636 757.579 144.036C757.579 133.598 754.87 124.278 749.453 116.076C744.035 107.626 733.816 103.401 718.795 103.401C707.714 103.401 699.095 107.75 692.939 116.449C686.044 126.39 682.597 139.066 682.597 154.475C682.597 171.873 686.413 183.43 694.047 189.146C698.479 192.626 702.789 195.235 706.975 196.975C711.407 198.466 716.825 200.206 723.227 202.194C729.876 203.934 735.17 205.798 739.11 207.786Z" fill="#EEF4FF"/>
<path d="M1379.54 369.233C1379.54 395.637 1364.56 416.662 1334.58 432.309C1350.93 435.732 1363.19 440.988 1371.37 448.078C1379.54 455.168 1383.75 465.803 1384 479.983C1384 487.806 1381.89 496.118 1377.68 504.92C1373.72 513.476 1368.89 520.566 1363.19 526.189C1357.74 531.812 1349.32 536.702 1337.93 540.858C1326.78 545.014 1313.9 547.092 1299.29 547.092C1284.92 547.092 1272.78 545.259 1262.88 541.592C1253.22 537.924 1246.03 533.768 1241.33 529.123C1236.62 524.233 1233.03 518.366 1230.55 511.52C1228.32 504.431 1227.08 499.296 1226.84 496.118C1226.84 492.696 1226.84 489.884 1226.84 487.684C1226.84 485.239 1226.84 482.672 1226.84 479.983C1228.57 455.779 1247.89 435.487 1284.8 419.107C1258.29 411.773 1245.04 397.226 1245.04 375.467C1245.04 359.576 1251.85 347.352 1265.48 338.795C1279.35 329.994 1295.32 325.593 1313.41 325.593C1331.74 325.593 1347.34 329.261 1360.22 336.595C1373.1 343.685 1379.54 354.564 1379.54 369.233ZM1287.77 420.574C1266.72 437.932 1256.19 459.568 1256.19 485.483C1256.19 495.751 1257.43 504.92 1259.9 512.987C1262.38 521.055 1265.23 527.167 1268.45 531.323C1271.92 535.235 1276.25 538.291 1281.45 540.491C1286.66 542.692 1290.12 543.914 1291.86 544.159C1293.84 544.159 1297.31 544.159 1302.26 544.159C1307.46 544.159 1313.04 543.058 1318.98 540.858C1325.17 538.413 1330.13 535.357 1333.84 531.69C1337.8 527.778 1341.15 523.622 1343.87 519.222C1346.85 514.576 1348.95 509.931 1350.19 505.286C1353.16 493.796 1354.65 484.261 1354.65 476.682C1354.65 468.859 1353.53 462.013 1351.3 456.146C1349.07 450.034 1345.11 445.022 1339.41 441.11C1333.97 437.199 1328.89 434.265 1324.18 432.309C1319.48 430.353 1313.04 428.275 1304.86 426.075C1296.69 423.63 1290.99 421.796 1287.77 420.574ZM1331.61 431.209C1344 414.584 1350.19 393.681 1350.19 368.5C1350.19 358.231 1347.46 349.063 1342.02 340.996C1336.57 332.683 1326.29 328.527 1311.18 328.527C1300.03 328.527 1291.36 332.806 1285.17 341.362C1278.23 351.142 1274.77 363.61 1274.77 378.768C1274.77 395.881 1278.61 407.25 1286.28 412.873C1290.74 416.296 1295.08 418.863 1299.29 420.574C1303.75 422.041 1309.2 423.752 1315.64 425.708C1322.32 427.419 1327.65 429.253 1331.61 431.209Z" fill="#EEF4FF"/>
<path d="M874.046 369.233C874.046 395.637 859.06 416.662 829.089 432.309C845.437 435.732 857.698 440.988 865.872 448.078C874.046 455.168 878.257 465.803 878.505 479.983C878.505 487.806 876.399 496.118 872.188 504.92C868.225 513.476 863.395 520.566 857.698 526.189C852.249 531.812 843.827 536.702 832.433 540.858C821.287 545.014 808.407 547.092 793.793 547.092C779.426 547.092 767.289 545.259 757.381 541.592C747.721 537.924 740.538 533.768 735.832 529.123C731.125 524.233 727.534 518.366 725.057 511.52C722.828 504.431 721.589 499.296 721.341 496.118C721.341 492.696 721.341 489.884 721.341 487.684C721.341 485.239 721.341 482.672 721.341 479.983C723.075 455.779 742.396 435.487 779.302 419.107C752.799 411.773 739.547 397.226 739.547 375.467C739.547 359.576 746.359 347.352 759.982 338.795C773.853 329.994 789.829 325.593 807.911 325.593C826.241 325.593 841.846 329.261 854.726 336.595C867.606 343.685 874.046 354.564 874.046 369.233ZM782.275 420.574C761.22 437.932 750.693 459.568 750.693 485.483C750.693 495.751 751.932 504.92 754.409 512.987C756.886 521.055 759.734 527.167 762.954 531.323C766.422 535.235 770.757 538.291 775.958 540.491C781.16 542.692 784.628 543.914 786.362 544.159C788.343 544.159 791.811 544.159 796.765 544.159C801.966 544.159 807.54 543.058 813.484 540.858C819.677 538.413 824.631 535.357 828.346 531.69C832.309 527.778 835.653 523.622 838.378 519.222C841.35 514.576 843.456 509.931 844.694 505.286C847.666 493.796 849.153 484.261 849.153 476.682C849.153 468.859 848.038 462.013 845.809 456.146C843.579 450.034 839.616 445.022 833.919 441.11C828.47 437.199 823.392 434.265 818.686 432.309C813.98 430.353 807.54 428.275 799.366 426.075C791.192 423.63 785.495 421.796 782.275 420.574ZM826.117 431.209C838.502 414.584 844.694 393.681 844.694 368.5C844.694 358.231 841.969 349.063 836.52 340.996C831.071 332.683 820.791 328.527 805.682 328.527C794.536 328.527 785.866 332.806 779.674 341.362C772.738 351.142 769.271 363.61 769.271 378.768C769.271 395.881 773.11 407.25 780.788 412.873C785.247 416.296 789.582 418.863 793.793 420.574C798.251 422.041 803.7 423.752 810.14 425.708C816.828 427.419 822.154 429.253 826.117 431.209Z" fill="#EEF4FF"/>
<path d="M1379.54 -78.1791C1379.54 -51.6657 1364.56 -30.5532 1334.58 -14.8416C1350.93 -11.4046 1363.19 -6.12651 1371.37 0.992836C1379.54 8.11217 1383.75 18.7912 1384 33.0299C1384 40.8857 1381.89 49.2325 1377.68 58.0703C1373.72 66.6626 1368.89 73.782 1363.19 79.4284C1357.74 85.0747 1349.32 89.9846 1337.93 94.158C1326.78 98.3314 1313.9 100.418 1299.29 100.418C1284.92 100.418 1272.78 98.5769 1262.88 94.8945C1253.22 91.2121 1246.03 87.0387 1241.33 82.3743C1236.62 77.4644 1233.03 71.5725 1230.55 64.6987C1228.32 57.5793 1227.08 52.424 1226.84 49.2325C1226.84 45.7956 1226.84 42.9724 1226.84 40.763C1226.84 38.308 1226.84 35.7303 1226.84 33.0299C1228.57 8.72591 1247.89 -11.6501 1284.8 -28.0983C1258.29 -35.4631 1245.04 -50.07 1245.04 -71.919C1245.04 -87.8762 1251.85 -100.151 1265.48 -108.743C1279.35 -117.581 1295.32 -122 1313.41 -122C1331.74 -122 1347.34 -118.317 1360.22 -110.953C1373.1 -103.833 1379.54 -92.9088 1379.54 -78.1791ZM1287.77 -26.6253C1266.72 -9.19518 1256.19 12.5311 1256.19 38.5535C1256.19 48.8643 1257.43 58.0703 1259.9 66.1716C1262.38 74.273 1265.23 80.4103 1268.45 84.5837C1271.92 88.5116 1276.25 91.5803 1281.45 93.7898C1286.66 95.9992 1290.12 97.2267 1291.86 97.4722C1293.84 97.4722 1297.31 97.4722 1302.26 97.4722C1307.46 97.4722 1313.04 96.3675 1318.98 94.158C1325.17 91.7031 1330.13 88.6344 1333.84 84.952C1337.8 81.0241 1341.15 76.8506 1343.87 72.4317C1346.85 67.7673 1348.95 63.103 1350.19 58.4386C1353.16 46.9003 1354.65 37.326 1354.65 29.7157C1354.65 21.8599 1353.53 14.986 1351.3 9.09416C1349.07 2.95679 1345.11 -2.07584 1339.41 -6.00375C1333.97 -9.93167 1328.89 -12.8776 1324.18 -14.8416C1319.48 -16.8055 1313.04 -18.8922 1304.86 -21.1016C1296.69 -23.5566 1290.99 -25.3978 1287.77 -26.6253ZM1331.61 -15.9463C1344 -32.6399 1350.19 -53.6297 1350.19 -78.9156C1350.19 -89.2264 1347.46 -98.4324 1342.02 -106.534C1336.57 -114.881 1326.29 -119.054 1311.18 -119.054C1300.03 -119.054 1291.36 -114.758 1285.17 -106.166C1278.23 -96.3457 1274.77 -83.8255 1274.77 -68.6049C1274.77 -51.4202 1278.61 -40.0047 1286.28 -34.3584C1290.74 -30.9214 1295.08 -28.3438 1299.29 -26.6253C1303.75 -25.1523 1309.2 -23.4339 1315.64 -21.4699C1322.32 -19.7514 1327.65 -17.9102 1331.61 -15.9463Z" fill="#EEF4FF"/>
<path d="M874.046 -78.1791C874.046 -51.6657 859.06 -30.5532 829.089 -14.8416C845.437 -11.4046 857.698 -6.12651 865.872 0.992836C874.046 8.11217 878.257 18.7912 878.505 33.0299C878.505 40.8857 876.399 49.2325 872.188 58.0703C868.225 66.6626 863.395 73.782 857.698 79.4284C852.249 85.0747 843.827 89.9846 832.433 94.158C821.287 98.3314 808.407 100.418 793.793 100.418C779.426 100.418 767.289 98.5769 757.381 94.8945C747.721 91.2121 740.538 87.0387 735.832 82.3743C731.125 77.4644 727.534 71.5725 725.057 64.6987C722.828 57.5793 721.589 52.424 721.341 49.2325C721.341 45.7956 721.341 42.9724 721.341 40.763C721.341 38.308 721.341 35.7303 721.341 33.0299C723.075 8.72591 742.396 -11.6501 779.302 -28.0983C752.799 -35.4631 739.547 -50.07 739.547 -71.919C739.547 -87.8762 746.359 -100.151 759.982 -108.743C773.853 -117.581 789.829 -122 807.911 -122C826.241 -122 841.846 -118.317 854.726 -110.953C867.606 -103.833 874.046 -92.9088 874.046 -78.1791ZM782.275 -26.6253C761.22 -9.19518 750.693 12.5311 750.693 38.5535C750.693 48.8643 751.932 58.0703 754.409 66.1716C756.886 74.273 759.734 80.4103 762.954 84.5837C766.422 88.5116 770.757 91.5803 775.958 93.7898C781.16 95.9992 784.628 97.2267 786.362 97.4722C788.343 97.4722 791.811 97.4722 796.765 97.4722C801.966 97.4722 807.54 96.3675 813.484 94.158C819.677 91.7031 824.631 88.6344 828.346 84.952C832.309 81.0241 835.653 76.8506 838.378 72.4317C841.35 67.7673 843.456 63.103 844.694 58.4386C847.666 46.9003 849.153 37.326 849.153 29.7157C849.153 21.8599 848.038 14.986 845.809 9.09416C843.579 2.95679 839.616 -2.07584 833.919 -6.00375C828.47 -9.93167 823.392 -12.8776 818.686 -14.8416C813.98 -16.8055 807.54 -18.8922 799.366 -21.1016C791.192 -23.5566 785.495 -25.3978 782.275 -26.6253ZM826.117 -15.9463C838.502 -32.6399 844.694 -53.6297 844.694 -78.9156C844.694 -89.2264 841.969 -98.4324 836.52 -106.534C831.071 -114.881 820.791 -119.054 805.682 -119.054C794.536 -119.054 785.866 -114.758 779.674 -106.166C772.738 -96.3457 769.271 -83.8255 769.271 -68.6049C769.271 -51.4202 773.11 -40.0047 780.788 -34.3584C785.247 -30.9214 789.582 -28.3438 793.793 -26.6253C798.251 -25.1523 803.7 -23.4339 810.14 -21.4699C816.828 -19.7514 822.154 -17.9102 826.117 -15.9463Z" fill="#EEF4FF"/>
<path d="M1042.26 813.433C1042.26 839.947 1027.37 861.059 997.57 876.771C1013.82 880.208 1026.01 885.486 1034.14 892.605C1042.26 899.725 1046.45 910.404 1046.7 924.642C1046.7 932.498 1044.6 940.845 1040.42 949.683C1036.48 958.275 1031.68 965.394 1026.01 971.041C1020.59 976.687 1012.22 981.597 1000.89 985.77C989.814 989.944 977.009 992.03 962.48 992.03C948.198 992.03 936.132 990.189 926.282 986.507C916.678 982.824 909.537 978.651 904.858 973.987C900.179 969.077 896.609 963.185 894.146 956.311C891.93 949.192 890.699 944.036 890.453 940.845C890.453 937.408 890.453 934.585 890.453 932.375C890.453 929.92 890.453 927.343 890.453 924.642C892.176 900.338 911.384 879.962 948.075 863.514C921.726 856.149 908.552 841.542 908.552 819.693C908.552 803.736 915.324 791.461 928.867 782.869C942.657 774.031 958.54 769.612 976.516 769.612C994.738 769.612 1010.25 773.295 1023.06 780.66C1035.86 787.779 1042.26 798.704 1042.26 813.433ZM951.03 864.987C930.098 882.417 919.633 904.143 919.633 930.166C919.633 940.477 920.864 949.683 923.327 957.784C925.789 965.885 928.621 972.023 931.822 976.196C935.27 980.124 939.579 983.193 944.75 985.402C949.921 987.612 953.369 988.839 955.093 989.085C957.063 989.085 960.51 989.085 965.435 989.085C970.606 989.085 976.147 987.98 982.057 985.77C988.213 983.315 993.138 980.247 996.832 976.564C1000.77 972.636 1004.1 968.463 1006.8 964.044C1009.76 959.38 1011.85 954.715 1013.08 950.051C1016.04 938.513 1017.52 928.938 1017.52 921.328C1017.52 913.472 1016.41 906.598 1014.19 900.706C1011.98 894.569 1008.04 889.536 1002.37 885.609C996.955 881.681 991.907 878.735 987.228 876.771C982.549 874.807 976.147 872.72 968.021 870.511C959.894 868.056 954.231 866.215 951.03 864.987ZM994.615 875.666C1006.93 858.972 1013.08 837.983 1013.08 812.697C1013.08 802.386 1010.38 793.18 1004.96 785.079C999.54 776.732 989.321 772.558 974.3 772.558C963.219 772.558 954.6 776.855 948.444 785.447C941.549 795.267 938.102 807.787 938.102 823.007C938.102 840.192 941.918 851.608 949.552 857.254C953.985 860.691 958.294 863.269 962.48 864.987C966.912 866.46 972.33 868.178 978.732 870.142C985.381 871.861 990.675 873.702 994.615 875.666Z" fill="#EEF4FF"/>
<path d="M538.685 813.433C538.685 839.947 524.05 861.059 494.78 876.771C510.746 880.208 522.72 885.486 530.702 892.605C538.685 899.725 542.798 910.404 543.039 924.642C543.039 932.498 540.983 940.845 536.871 949.683C533.001 958.275 528.283 965.394 522.72 971.041C517.398 976.687 509.173 981.597 498.046 985.77C487.16 989.944 474.581 992.03 460.309 992.03C446.279 992.03 434.425 990.189 424.749 986.507C415.315 982.824 408.3 978.651 403.704 973.987C399.108 969.077 395.6 963.185 393.181 956.311C391.004 949.192 389.795 944.036 389.553 940.845C389.553 937.408 389.553 934.585 389.553 932.375C389.553 929.92 389.553 927.343 389.553 924.642C391.246 900.338 410.114 879.962 446.158 863.514C420.274 856.149 407.332 841.542 407.332 819.693C407.332 803.736 413.985 791.461 427.289 782.869C440.836 774.031 456.439 769.612 474.097 769.612C491.998 769.612 507.238 773.295 519.817 780.66C532.396 787.779 538.685 798.704 538.685 813.433ZM449.061 864.987C428.499 882.417 418.218 904.143 418.218 930.166C418.218 940.477 419.428 949.683 421.847 957.784C424.266 965.885 427.047 972.023 430.192 976.196C433.579 980.124 437.812 983.193 442.892 985.402C447.972 987.612 451.359 988.839 453.052 989.085C454.987 989.085 458.374 989.085 463.212 989.085C468.292 989.085 473.735 987.98 479.54 985.77C485.588 983.315 490.426 980.247 494.054 976.564C497.925 972.636 501.19 968.463 503.851 964.044C506.754 959.38 508.81 954.715 510.02 950.051C512.923 938.513 514.374 928.938 514.374 921.328C514.374 913.472 513.285 906.598 511.108 900.706C508.931 894.569 505.061 889.536 499.497 885.609C494.175 881.681 489.216 878.735 484.62 876.771C480.024 874.807 473.735 872.72 465.752 870.511C457.769 868.056 452.205 866.215 449.061 864.987ZM491.877 875.666C503.972 858.972 510.02 837.983 510.02 812.697C510.02 802.386 507.359 793.18 502.037 785.079C496.715 776.732 486.676 772.558 471.92 772.558C461.035 772.558 452.568 776.855 446.521 785.447C439.747 795.267 436.361 807.787 436.361 823.007C436.361 840.192 440.11 851.608 447.609 857.254C451.963 860.691 456.197 863.269 460.309 864.987C464.663 866.46 469.985 868.178 476.274 870.142C482.806 871.861 488.007 873.702 491.877 875.666Z" fill="#EEF4FF"/>
<path d="M1207.67 813.433C1207.67 839.947 1192.69 861.059 1162.72 876.771C1179.06 880.208 1191.33 885.486 1199.5 892.605C1207.67 899.725 1211.88 910.404 1212.13 924.642C1212.13 932.498 1210.03 940.845 1205.82 949.683C1201.85 958.275 1197.02 965.394 1191.33 971.041C1185.88 976.687 1177.45 981.597 1166.06 985.77C1154.91 989.944 1142.03 992.03 1127.42 992.03C1113.05 992.03 1100.92 990.189 1091.01 986.507C1081.35 982.824 1074.16 978.651 1069.46 973.987C1064.75 969.077 1061.16 963.185 1058.68 956.311C1056.45 949.192 1055.22 944.036 1054.97 940.845C1054.97 937.408 1054.97 934.585 1054.97 932.375C1054.97 929.92 1054.97 927.343 1054.97 924.642C1056.7 900.338 1076.02 879.962 1112.93 863.514C1086.43 856.149 1073.17 841.542 1073.17 819.693C1073.17 803.736 1079.99 791.461 1093.61 782.869C1107.48 774.031 1123.46 769.612 1141.54 769.612C1159.87 769.612 1175.47 773.295 1188.35 780.66C1201.23 787.779 1207.67 798.704 1207.67 813.433ZM1115.9 864.987C1094.85 882.417 1084.32 904.143 1084.32 930.166C1084.32 940.477 1085.56 949.683 1088.04 957.784C1090.51 965.885 1093.36 972.023 1096.58 976.196C1100.05 980.124 1104.38 983.193 1109.59 985.402C1114.79 987.612 1118.25 988.839 1119.99 989.085C1121.97 989.085 1125.44 989.085 1130.39 989.085C1135.59 989.085 1141.17 987.98 1147.11 985.77C1153.3 983.315 1158.26 980.247 1161.97 976.564C1165.94 972.636 1169.28 968.463 1172 964.044C1174.98 959.38 1177.08 954.715 1178.32 950.051C1181.29 938.513 1182.78 928.938 1182.78 921.328C1182.78 913.472 1181.67 906.598 1179.44 900.706C1177.21 894.569 1173.24 889.536 1167.55 885.609C1162.1 881.681 1157.02 878.735 1152.31 876.771C1147.61 874.807 1141.17 872.72 1132.99 870.511C1124.82 868.056 1119.12 866.215 1115.9 864.987ZM1159.74 875.666C1172.13 858.972 1178.32 837.983 1178.32 812.697C1178.32 802.386 1175.6 793.18 1170.15 785.079C1164.7 776.732 1154.42 772.558 1139.31 772.558C1128.16 772.558 1119.49 776.855 1113.3 785.447C1106.37 795.267 1102.9 807.787 1102.9 823.007C1102.9 840.192 1106.74 851.608 1114.42 857.254C1118.87 860.691 1123.21 863.269 1127.42 864.987C1131.88 866.46 1137.33 868.178 1143.77 870.142C1150.46 871.861 1155.78 873.702 1159.74 875.666Z" fill="#EEF4FF"/>
<path d="M705.88 813.433C705.88 839.947 690.982 861.059 661.186 876.771C677.438 880.208 689.628 885.486 697.754 892.605C705.88 899.725 710.066 910.404 710.312 924.642C710.312 932.498 708.219 940.845 704.033 949.683C700.093 958.275 695.291 965.394 689.628 971.041C684.21 976.687 675.838 981.597 664.51 985.77C653.429 989.944 640.624 992.03 626.096 992.03C611.813 992.03 599.747 990.189 589.897 986.507C580.294 982.824 573.153 978.651 568.474 973.987C563.795 969.077 560.225 963.185 557.762 956.311C555.546 949.192 554.315 944.036 554.068 940.845C554.068 937.408 554.068 934.585 554.068 932.375C554.068 929.92 554.068 927.343 554.068 924.642C555.792 900.338 574.999 879.962 611.69 863.514C585.342 856.149 572.168 841.542 572.168 819.693C572.168 803.736 578.939 791.461 592.483 782.869C606.273 774.031 622.156 769.612 640.132 769.612C658.354 769.612 673.868 773.295 686.673 780.66C699.478 787.779 705.88 798.704 705.88 813.433ZM614.645 864.987C593.714 882.417 583.249 904.143 583.249 930.166C583.249 940.477 584.48 949.683 586.942 957.784C589.405 965.885 592.237 972.023 595.438 976.196C598.885 980.124 603.195 983.193 608.366 985.402C613.537 987.612 616.985 988.839 618.708 989.085C620.678 989.085 624.126 989.085 629.051 989.085C634.222 989.085 639.763 987.98 645.672 985.77C651.829 983.315 656.754 980.247 660.447 976.564C664.387 972.636 667.712 968.463 670.42 964.044C673.375 959.38 675.468 954.715 676.7 950.051C679.655 938.513 681.132 928.938 681.132 921.328C681.132 913.472 680.024 906.598 677.808 900.706C675.592 894.569 671.652 889.536 665.988 885.609C660.57 881.681 655.522 878.735 650.844 876.771C646.165 874.807 639.763 872.72 631.636 870.511C623.51 868.056 617.846 866.215 614.645 864.987ZM658.231 875.666C670.543 858.972 676.7 837.983 676.7 812.697C676.7 802.386 673.991 793.18 668.573 785.079C663.156 776.732 652.937 772.558 637.916 772.558C626.835 772.558 618.216 776.855 612.06 785.447C605.165 795.267 601.717 807.787 601.717 823.007C601.717 840.192 605.534 851.608 613.168 857.254C617.6 860.691 621.91 863.269 626.096 864.987C630.528 866.46 635.946 868.178 642.348 870.142C648.997 871.861 654.291 873.702 658.231 875.666Z" fill="#EEF4FF"/>
<path d="M1379.54 813.433C1379.54 839.947 1364.56 861.059 1334.58 876.771C1350.93 880.208 1363.19 885.486 1371.37 892.605C1379.54 899.725 1383.75 910.404 1384 924.642C1384 932.498 1381.89 940.845 1377.68 949.683C1373.72 958.275 1368.89 965.394 1363.19 971.041C1357.74 976.687 1349.32 981.597 1337.93 985.77C1326.78 989.944 1313.9 992.03 1299.29 992.03C1284.92 992.03 1272.78 990.189 1262.88 986.507C1253.22 982.824 1246.03 978.651 1241.33 973.987C1236.62 969.077 1233.03 963.185 1230.55 956.311C1228.32 949.192 1227.08 944.036 1226.84 940.845C1226.84 937.408 1226.84 934.585 1226.84 932.375C1226.84 929.92 1226.84 927.343 1226.84 924.642C1228.57 900.338 1247.89 879.962 1284.8 863.514C1258.29 856.149 1245.04 841.542 1245.04 819.693C1245.04 803.736 1251.85 791.461 1265.48 782.869C1279.35 774.031 1295.32 769.612 1313.41 769.612C1331.74 769.612 1347.34 773.295 1360.22 780.66C1373.1 787.779 1379.54 798.704 1379.54 813.433ZM1287.77 864.987C1266.72 882.417 1256.19 904.143 1256.19 930.166C1256.19 940.477 1257.43 949.683 1259.9 957.784C1262.38 965.885 1265.23 972.023 1268.45 976.196C1271.92 980.124 1276.25 983.193 1281.45 985.402C1286.66 987.612 1290.12 988.839 1291.86 989.085C1293.84 989.085 1297.31 989.085 1302.26 989.085C1307.46 989.085 1313.04 987.98 1318.98 985.77C1325.17 983.315 1330.13 980.247 1333.84 976.564C1337.8 972.636 1341.15 968.463 1343.87 964.044C1346.85 959.38 1348.95 954.715 1350.19 950.051C1353.16 938.513 1354.65 928.938 1354.65 921.328C1354.65 913.472 1353.53 906.598 1351.3 900.706C1349.07 894.569 1345.11 889.536 1339.41 885.609C1333.97 881.681 1328.89 878.735 1324.18 876.771C1319.48 874.807 1313.04 872.72 1304.86 870.511C1296.69 868.056 1290.99 866.215 1287.77 864.987ZM1331.61 875.666C1344 858.972 1350.19 837.983 1350.19 812.697C1350.19 802.386 1347.46 793.18 1342.02 785.079C1336.57 776.732 1326.29 772.558 1311.18 772.558C1300.03 772.558 1291.36 776.855 1285.17 785.447C1278.23 795.267 1274.77 807.787 1274.77 823.007C1274.77 840.192 1278.61 851.608 1286.28 857.254C1290.74 860.691 1295.08 863.269 1299.29 864.987C1303.75 866.46 1309.2 868.178 1315.64 870.142C1322.32 871.861 1327.65 873.702 1331.61 875.666Z" fill="#EEF4FF"/>
<path d="M874.046 813.433C874.046 839.947 859.06 861.059 829.089 876.771C845.437 880.208 857.698 885.486 865.872 892.605C874.046 899.725 878.257 910.404 878.505 924.642C878.505 932.498 876.399 940.845 872.188 949.683C868.225 958.275 863.395 965.394 857.698 971.041C852.249 976.687 843.827 981.597 832.433 985.77C821.287 989.944 808.407 992.03 793.793 992.03C779.426 992.03 767.289 990.189 757.381 986.507C747.721 982.824 740.538 978.651 735.832 973.987C731.125 969.077 727.534 963.185 725.057 956.311C722.828 949.192 721.589 944.036 721.341 940.845C721.341 937.408 721.341 934.585 721.341 932.375C721.341 929.92 721.341 927.343 721.341 924.642C723.075 900.338 742.396 879.962 779.302 863.514C752.799 856.149 739.547 841.542 739.547 819.693C739.547 803.736 746.359 791.461 759.982 782.869C773.853 774.031 789.829 769.612 807.911 769.612C826.241 769.612 841.846 773.295 854.726 780.66C867.606 787.779 874.046 798.704 874.046 813.433ZM782.275 864.987C761.22 882.417 750.693 904.143 750.693 930.166C750.693 940.477 751.932 949.683 754.409 957.784C756.886 965.885 759.734 972.023 762.954 976.196C766.422 980.124 770.757 983.193 775.958 985.402C781.16 987.612 784.628 988.839 786.362 989.085C788.343 989.085 791.811 989.085 796.765 989.085C801.966 989.085 807.54 987.98 813.484 985.77C819.677 983.315 824.631 980.247 828.346 976.564C832.309 972.636 835.653 968.463 838.378 964.044C841.35 959.38 843.456 954.715 844.694 950.051C847.666 938.513 849.153 928.938 849.153 921.328C849.153 913.472 848.038 906.598 845.809 900.706C843.579 894.569 839.616 889.536 833.919 885.609C828.47 881.681 823.392 878.735 818.686 876.771C813.98 874.807 807.54 872.72 799.366 870.511C791.192 868.056 785.495 866.215 782.275 864.987ZM826.117 875.666C838.502 858.972 844.694 837.983 844.694 812.697C844.694 802.386 841.969 793.18 836.52 785.079C831.071 776.732 820.791 772.558 805.682 772.558C794.536 772.558 785.866 776.855 779.674 785.447C772.738 795.267 769.271 807.787 769.271 823.007C769.271 840.192 773.11 851.608 780.788 857.254C785.247 860.691 789.582 863.269 793.793 864.987C798.251 866.46 803.7 868.178 810.14 870.142C816.828 871.861 822.154 873.702 826.117 875.666Z" fill="#EEF4FF"/>
<path d="M34.62 815.469C34.62 841.982 19.722 863.095 -10.074 878.806C6.17837 882.243 18.3676 887.521 26.4938 894.641C34.62 901.76 38.8062 912.439 39.0524 926.678C39.0524 934.534 36.9593 942.88 32.7731 951.718C28.8331 960.311 24.0313 967.43 18.3676 973.076C12.9502 978.723 4.57777 983.633 -6.74962 987.806C-17.8308 991.979 -30.6356 994.066 -45.1642 994.066C-59.4466 994.066 -71.5127 992.225 -81.3626 988.542C-90.9663 984.86 -98.1075 980.687 -102.786 976.022C-107.465 971.112 -111.035 965.221 -113.498 958.347C-115.714 951.227 -116.945 946.072 -117.192 942.881C-117.192 939.444 -117.192 936.62 -117.192 934.411C-117.192 931.956 -117.192 929.378 -117.192 926.678C-115.468 902.374 -96.2606 881.998 -59.5697 865.55C-85.9182 858.185 -99.0925 843.578 -99.0925 821.729C-99.0925 805.772 -92.3206 793.497 -78.777 784.905C-64.9872 776.067 -49.1042 771.648 -31.1281 771.648C-12.9058 771.648 2.60778 775.33 15.4127 782.695C28.2175 789.815 34.62 800.739 34.62 815.469ZM-56.6148 867.023C-77.5458 884.453 -88.0113 906.179 -88.0113 932.201C-88.0113 942.512 -86.7801 951.718 -84.3176 959.82C-81.8551 967.921 -79.0233 974.058 -75.8221 978.232C-72.3746 982.16 -68.0653 985.228 -62.8941 987.438C-57.7229 989.647 -54.2754 990.875 -52.5517 991.12C-50.5817 991.12 -47.1342 991.12 -42.2093 991.12C-37.0381 991.12 -31.4975 990.015 -25.5876 987.806C-19.4314 985.351 -14.5064 982.282 -10.8127 978.6C-6.87275 974.672 -3.5484 970.499 -0.839676 966.08C2.11529 961.415 4.2084 956.751 5.43963 952.087C8.3946 940.548 9.87209 930.974 9.87209 923.364C9.87209 915.508 8.76397 908.634 6.54774 902.742C4.33151 896.605 0.391548 891.572 -5.27214 887.644C-10.6896 883.716 -15.7377 880.77 -20.4164 878.806C-25.0951 876.842 -31.4975 874.756 -39.6237 872.546C-47.7498 870.091 -53.4135 868.25 -56.6148 867.023ZM-13.0289 877.702C-0.71656 861.008 5.43963 840.018 5.43963 814.732C5.43963 804.422 2.7309 795.216 -2.68655 787.114C-8.10399 778.767 -18.3233 774.594 -33.3444 774.594C-44.4255 774.594 -53.0442 778.89 -59.2004 787.482C-66.0953 797.302 -69.5427 809.822 -69.5427 825.043C-69.5427 842.228 -65.7259 853.643 -58.0922 859.29C-53.6598 862.727 -49.3504 865.304 -45.1642 867.023C-40.7318 868.496 -35.3143 870.214 -28.9119 872.178C-22.2632 873.897 -16.9689 875.738 -13.0289 877.702Z" fill="#EEF4FF"/>
<path d="M200.029 815.469C200.029 841.982 185.043 863.095 155.072 878.806C171.42 882.243 183.681 887.521 191.855 894.641C200.029 901.76 204.24 912.439 204.487 926.678C204.487 934.534 202.382 942.88 198.171 951.718C194.208 960.311 189.378 967.43 183.681 973.076C178.232 978.723 169.81 983.633 158.416 987.806C147.27 991.979 134.389 994.066 119.775 994.066C105.409 994.066 93.2718 992.225 83.364 988.542C73.7038 984.86 66.5207 980.687 61.8144 976.022C57.1082 971.112 53.5166 965.221 51.0397 958.347C48.8104 951.227 47.5719 946.072 47.3242 942.881C47.3242 939.444 47.3242 936.62 47.3242 934.411C47.3242 931.956 47.3242 929.378 47.3242 926.678C49.0581 902.374 68.3784 881.998 105.285 865.55C78.7816 858.185 65.5299 843.578 65.5299 821.729C65.5299 805.772 72.3415 793.497 85.9648 784.905C99.8358 776.067 115.812 771.648 133.894 771.648C152.223 771.648 167.828 775.33 180.709 782.695C193.589 789.815 200.029 800.739 200.029 815.469ZM108.257 867.023C87.2033 884.453 76.6762 906.179 76.6762 932.201C76.6762 942.512 77.9147 951.718 80.3916 959.82C82.8686 967.921 85.7171 974.058 88.9372 978.232C92.4049 982.16 96.7396 985.228 101.941 987.438C107.143 989.647 110.611 990.875 112.344 991.12C114.326 991.12 117.794 991.12 122.748 991.12C127.949 991.12 133.522 990.015 139.467 987.806C145.66 985.351 150.613 982.282 154.329 978.6C158.292 974.672 161.636 970.499 164.361 966.08C167.333 961.415 169.438 956.751 170.677 952.087C173.649 940.548 175.135 930.974 175.135 923.364C175.135 915.508 174.021 908.634 171.791 902.742C169.562 896.605 165.599 891.572 159.902 887.644C154.453 883.716 149.375 880.77 144.669 878.806C139.963 876.842 133.522 874.756 125.348 872.546C117.175 870.091 111.478 868.25 108.257 867.023ZM152.1 877.702C164.484 861.008 170.677 840.018 170.677 814.732C170.677 804.422 167.952 795.216 162.503 787.114C157.054 778.767 146.774 774.594 131.665 774.594C120.518 774.594 111.849 778.89 105.657 787.482C98.7211 797.302 95.2534 809.822 95.2534 825.043C95.2534 842.228 99.0927 853.643 106.771 859.29C111.23 862.727 115.564 865.304 119.775 867.023C124.234 868.496 129.683 870.214 136.123 872.178C142.811 873.897 148.137 875.738 152.1 877.702Z" fill="#EEF4FF"/>
<path d="M371.897 815.469C371.897 841.982 356.912 863.095 326.94 878.806C343.288 882.243 355.549 887.521 363.723 894.641C371.897 901.76 376.108 912.439 376.356 926.678C376.356 934.534 374.25 942.88 370.04 951.718C366.076 960.311 361.246 967.43 355.549 973.076C350.1 978.723 341.678 983.633 330.284 987.806C319.138 991.979 306.258 994.066 291.644 994.066C277.277 994.066 265.14 992.225 255.232 988.542C245.572 984.86 238.389 980.687 233.683 976.022C228.977 971.112 225.385 965.221 222.908 958.347C220.679 951.227 219.44 946.072 219.193 942.881C219.193 939.444 219.193 936.62 219.193 934.411C219.193 931.956 219.193 929.378 219.193 926.678C220.926 902.374 240.247 881.998 277.154 865.55C250.65 858.185 237.398 843.578 237.398 821.729C237.398 805.772 244.21 793.497 257.833 784.905C271.704 776.067 287.681 771.648 305.762 771.648C324.092 771.648 339.697 775.33 352.577 782.695C365.457 789.815 371.897 800.739 371.897 815.469ZM280.126 867.023C259.072 884.453 248.545 906.179 248.545 932.201C248.545 942.512 249.783 951.718 252.26 959.82C254.737 967.921 257.586 974.058 260.806 978.232C264.273 982.16 268.608 985.228 273.81 987.438C279.011 989.647 282.479 990.875 284.213 991.12C286.194 991.12 289.662 991.12 294.616 991.12C299.818 991.12 305.391 990.015 311.336 987.806C317.528 985.351 322.482 982.282 326.197 978.6C330.16 974.672 333.504 970.499 336.229 966.08C339.201 961.415 341.307 956.751 342.545 952.087C345.518 940.548 347.004 930.974 347.004 923.364C347.004 915.508 345.889 908.634 343.66 902.742C341.431 896.605 337.467 891.572 331.77 887.644C326.321 883.716 321.243 880.77 316.537 878.806C311.831 876.842 305.391 874.756 297.217 872.546C289.043 870.091 283.346 868.25 280.126 867.023ZM323.968 877.702C336.353 861.008 342.545 840.018 342.545 814.732C342.545 804.422 339.821 795.216 334.371 787.114C328.922 778.767 318.643 774.594 303.533 774.594C292.387 774.594 283.717 778.89 277.525 787.482C270.59 797.302 267.122 809.822 267.122 825.043C267.122 842.228 270.961 853.643 278.64 859.29C283.098 862.727 287.433 865.304 291.644 867.023C296.102 868.496 301.552 870.214 307.992 872.178C314.679 873.897 320.005 875.738 323.968 877.702Z" fill="#EEF4FF"/>
<path d="M47.5123 369.233C47.5123 395.637 32.6143 416.662 2.81837 432.309C19.0707 435.732 31.26 440.988 39.3861 448.078C47.5123 455.168 51.6985 465.803 51.9447 479.983C51.9447 487.806 49.8517 496.118 45.6654 504.92C41.7255 513.476 36.9236 520.566 31.26 526.189C25.8425 531.812 17.4701 536.702 6.14272 540.858C-4.93843 545.014 -17.7433 547.092 -32.2719 547.092C-46.5543 547.092 -58.6204 545.259 -68.4703 541.592C-78.074 537.924 -85.2151 533.768 -89.8938 529.123C-94.5725 524.233 -98.1431 518.366 -100.606 511.52C-102.822 504.431 -104.053 499.296 -104.299 496.118C-104.299 492.696 -104.299 489.884 -104.299 487.684C-104.299 485.239 -104.299 482.672 -104.299 479.983C-102.576 455.779 -83.3683 435.487 -46.6774 419.107C-73.0259 411.773 -86.2001 397.226 -86.2001 375.467C-86.2001 359.576 -79.4283 347.352 -65.8847 338.795C-52.0948 329.994 -36.2119 325.593 -18.2358 325.593C-0.0134811 325.593 15.5001 329.261 28.305 336.595C41.1099 343.685 47.5123 354.564 47.5123 369.233ZM-43.7224 420.574C-64.6535 437.932 -75.119 459.568 -75.119 485.483C-75.119 495.751 -73.8877 504.92 -71.4253 512.987C-68.9628 521.055 -66.1309 527.167 -62.9297 531.323C-59.4823 535.235 -55.1729 538.291 -50.0017 540.491C-44.8305 542.692 -41.3831 543.914 -39.6593 544.159C-37.6894 544.159 -34.2419 544.159 -29.3169 544.159C-24.1457 544.159 -18.6052 543.058 -12.6952 540.858C-6.53904 538.413 -1.61409 535.357 2.07963 531.69C6.01958 527.778 9.34393 523.622 12.0527 519.222C15.0076 514.576 17.1007 509.931 18.332 505.286C21.2869 493.796 22.7644 484.261 22.7644 476.682C22.7644 468.859 21.6563 462.013 19.4401 456.146C17.2238 450.034 13.2839 445.022 7.62019 441.11C2.20275 437.199 -2.84532 434.265 -7.52402 432.309C-12.2027 430.353 -18.6052 428.275 -26.7313 426.075C-34.8575 423.63 -40.5212 421.796 -43.7224 420.574ZM-0.136604 431.209C12.1758 414.584 18.332 393.681 18.332 368.5C18.332 358.231 15.6232 349.063 10.2058 340.996C4.78835 332.683 -5.43092 328.527 -20.452 328.527C-31.5332 328.527 -40.1518 332.806 -46.308 341.362C-53.2029 351.142 -56.6504 363.61 -56.6504 378.768C-56.6504 395.881 -52.8336 407.25 -45.1999 412.873C-40.7674 416.296 -36.4581 418.863 -32.2719 420.574C-27.8395 422.041 -22.422 423.752 -16.0196 425.708C-9.37089 427.419 -4.07657 429.253 -0.136604 431.209Z" fill="#EEF4FF"/>
<path d="M47.5123 -78.1791C47.5123 -51.6657 32.6143 -30.5532 2.81837 -14.8416C19.0707 -11.4046 31.26 -6.12651 39.3861 0.992836C47.5123 8.11217 51.6985 18.7912 51.9447 33.0299C51.9447 40.8857 49.8517 49.2325 45.6654 58.0703C41.7255 66.6626 36.9236 73.782 31.26 79.4284C25.8425 85.0747 17.4701 89.9846 6.14272 94.158C-4.93843 98.3314 -17.7433 100.418 -32.2719 100.418C-46.5543 100.418 -58.6204 98.5769 -68.4703 94.8945C-78.074 91.2121 -85.2151 87.0387 -89.8938 82.3743C-94.5725 77.4644 -98.1431 71.5725 -100.606 64.6987C-102.822 57.5793 -104.053 52.424 -104.299 49.2325C-104.299 45.7956 -104.299 42.9724 -104.299 40.763C-104.299 38.308 -104.299 35.7303 -104.299 33.0299C-102.576 8.72591 -83.3683 -11.6501 -46.6774 -28.0983C-73.0259 -35.4631 -86.2001 -50.07 -86.2001 -71.919C-86.2001 -87.8762 -79.4283 -100.151 -65.8847 -108.743C-52.0948 -117.581 -36.2119 -122 -18.2358 -122C-0.0134811 -122 15.5001 -118.317 28.305 -110.953C41.1099 -103.833 47.5123 -92.9088 47.5123 -78.1791ZM-43.7224 -26.6253C-64.6535 -9.19518 -75.119 12.5311 -75.119 38.5535C-75.119 48.8643 -73.8877 58.0703 -71.4253 66.1716C-68.9628 74.273 -66.1309 80.4103 -62.9297 84.5837C-59.4823 88.5116 -55.1729 91.5803 -50.0017 93.7898C-44.8305 95.9992 -41.3831 97.2267 -39.6593 97.4722C-37.6894 97.4722 -34.2419 97.4722 -29.3169 97.4722C-24.1457 97.4722 -18.6052 96.3675 -12.6952 94.158C-6.53904 91.7031 -1.61409 88.6344 2.07963 84.952C6.01958 81.0241 9.34393 76.8506 12.0527 72.4317C15.0076 67.7673 17.1007 63.103 18.332 58.4386C21.2869 46.9003 22.7644 37.326 22.7644 29.7157C22.7644 21.8599 21.6563 14.986 19.4401 9.09416C17.2238 2.95679 13.2839 -2.07584 7.62019 -6.00375C2.20275 -9.93167 -2.84532 -12.8776 -7.52402 -14.8416C-12.2027 -16.8055 -18.6052 -18.8922 -26.7313 -21.1016C-34.8575 -23.5566 -40.5212 -25.3978 -43.7224 -26.6253ZM-0.136604 -15.9463C12.1758 -32.6399 18.332 -53.6297 18.332 -78.9156C18.332 -89.2264 15.6232 -98.4324 10.2058 -106.534C4.78835 -114.881 -5.43092 -119.054 -20.452 -119.054C-31.5332 -119.054 -40.1518 -114.758 -46.308 -106.166C-53.2029 -96.3457 -56.6504 -83.8255 -56.6504 -68.6049C-56.6504 -51.4202 -52.8336 -40.0047 -45.1999 -34.3584C-40.7674 -30.9214 -36.4581 -28.3438 -32.2719 -26.6253C-27.8395 -25.1523 -22.422 -23.4339 -16.0196 -21.4699C-9.37089 -19.7514 -4.07657 -17.9102 -0.136604 -15.9463Z" fill="#EEF4FF"/>
<path d="M124.689 590.913C124.689 617.426 109.704 638.539 79.7324 654.251C96.0803 657.688 108.341 662.966 116.515 670.085C124.689 677.204 128.9 687.883 129.148 702.122C129.148 709.978 127.042 718.325 122.832 727.163C118.868 735.755 114.038 742.874 108.341 748.521C102.892 754.167 94.4703 759.077 83.0763 763.25C71.93 767.424 59.0498 769.51 44.4357 769.51C30.0693 769.51 17.9322 767.669 8.02439 763.987C-1.63575 760.304 -8.81894 756.131 -13.5252 751.466C-18.2314 746.557 -21.823 740.665 -24.2999 733.791C-26.5292 726.672 -27.7677 721.516 -28.0154 718.325C-28.0154 714.888 -28.0154 712.065 -28.0154 709.855C-28.0154 707.4 -28.0154 704.823 -28.0154 702.122C-26.2815 677.818 -6.96122 657.442 29.9455 640.994C3.44202 633.629 -9.80972 619.022 -9.80972 597.173C-9.80972 581.216 -2.99808 568.941 10.6252 560.349C24.4962 551.511 40.4726 547.092 58.5544 547.092C76.8839 547.092 92.4888 550.775 105.369 558.14C118.249 565.259 124.689 576.183 124.689 590.913ZM32.9178 642.467C11.8637 659.897 1.33661 681.623 1.33661 707.646C1.33661 717.956 2.57508 727.163 5.05204 735.264C7.529 743.365 10.3775 749.503 13.5976 753.676C17.0653 757.604 21.4 760.673 26.6016 762.882C31.8032 765.091 35.271 766.319 37.0048 766.564C38.9864 766.564 42.4541 766.564 47.4081 766.564C52.6097 766.564 58.1828 765.46 64.1276 763.25C70.32 760.795 75.2739 757.727 78.9893 754.044C82.9525 750.116 86.2963 745.943 89.021 741.524C91.9934 736.86 94.0988 732.195 95.3373 727.531C98.3096 715.993 99.7958 706.418 99.7958 698.808C99.7958 690.952 98.6812 684.078 96.4519 678.186C94.2226 672.049 90.2595 667.016 84.5625 663.088C79.1132 659.161 74.0354 656.215 69.3292 654.251C64.6229 652.287 58.1828 650.2 50.0089 647.991C41.8349 645.536 36.1379 643.694 32.9178 642.467ZM76.76 653.146C89.1449 636.452 95.3373 615.463 95.3373 590.177C95.3373 579.866 92.6126 570.66 87.1633 562.558C81.714 554.212 71.4346 550.038 56.3251 550.038C45.1788 550.038 36.5094 554.334 30.317 562.927C23.3815 572.746 19.9138 585.267 19.9138 600.487C19.9138 617.672 23.7531 629.087 31.4317 634.734C35.8902 638.171 40.2249 640.748 44.4357 642.467C48.8942 643.94 54.3436 645.658 60.7837 647.622C67.4715 649.341 72.7969 651.182 76.76 653.146Z" fill="#EEF4FF"/>
<path d="M124.689 144.782C124.689 171.624 109.704 192.998 79.7324 208.905C96.0803 212.384 108.341 217.728 116.515 224.936C124.689 232.143 128.9 242.955 129.148 257.37C129.148 265.323 127.042 273.773 122.832 282.721C118.868 291.419 114.038 298.627 108.341 304.343C102.892 310.06 94.4703 315.03 83.0763 319.256C71.93 323.481 59.0498 325.593 44.4357 325.593C30.0693 325.593 17.9322 323.729 8.02439 320.001C-1.63575 316.273 -8.81894 312.048 -13.5252 307.326C-18.2314 302.355 -21.823 296.39 -24.2999 289.431C-26.5292 282.223 -27.7677 277.004 -28.0154 273.773C-28.0154 270.294 -28.0154 267.436 -28.0154 265.199C-28.0154 262.713 -28.0154 260.104 -28.0154 257.37C-26.2815 232.764 -6.96122 212.136 29.9455 195.484C3.44202 188.028 -9.80972 173.24 -9.80972 151.12C-9.80972 134.965 -2.99808 122.538 10.6252 113.839C24.4962 104.892 40.4726 100.418 58.5544 100.418C76.8839 100.418 92.4888 104.146 105.369 111.602C118.249 118.81 124.689 129.87 124.689 144.782ZM32.9178 196.975C11.8637 214.621 1.33661 236.617 1.33661 262.962C1.33661 273.4 2.57508 282.721 5.05204 290.922C7.529 299.124 10.3775 305.338 13.5976 309.563C17.0653 313.539 21.4 316.646 26.6016 318.883C31.8032 321.12 35.271 322.362 37.0048 322.611C38.9864 322.611 42.4541 322.611 47.4081 322.611C52.6097 322.611 58.1828 321.492 64.1276 319.256C70.32 316.77 75.2739 313.664 78.9893 309.935C82.9525 305.959 86.2963 301.734 89.021 297.26C91.9934 292.538 94.0988 287.816 95.3373 283.093C98.3096 271.412 99.7958 261.719 99.7958 254.014C99.7958 246.061 98.6812 239.102 96.4519 233.137C94.2226 226.924 90.2595 221.829 84.5625 217.852C79.1132 213.876 74.0354 210.893 69.3292 208.905C64.6229 206.917 58.1828 204.804 50.0089 202.567C41.8349 200.082 36.1379 198.218 32.9178 196.975ZM76.76 207.786C89.1449 190.886 95.3373 169.636 95.3373 144.036C95.3373 133.598 92.6126 124.278 87.1633 116.076C81.714 107.626 71.4346 103.401 56.3251 103.401C45.1788 103.401 36.5094 107.75 30.317 116.449C23.3815 126.39 19.9138 139.066 19.9138 154.475C19.9138 171.873 23.7531 183.43 31.4317 189.146C35.8902 192.626 40.2249 195.235 44.4357 196.975C48.8942 198.466 54.3436 200.206 60.7837 202.194C67.4715 203.934 72.7969 205.798 76.76 207.786Z" fill="#EEF4FF"/>
<path d="M212.921 369.233C212.921 395.637 197.936 416.662 167.964 432.309C184.312 435.732 196.573 440.988 204.747 448.078C212.921 455.168 217.132 465.803 217.38 479.983C217.38 487.806 215.274 496.118 211.063 504.92C207.1 513.476 202.27 520.566 196.573 526.189C191.124 531.812 182.702 536.702 171.308 540.858C160.162 545.014 147.282 547.092 132.668 547.092C118.301 547.092 106.164 545.259 96.2563 541.592C86.5962 537.924 79.413 533.768 74.7068 529.123C70.0005 524.233 66.409 518.366 63.932 511.52C61.7027 504.431 60.4642 499.296 60.2166 496.118C60.2166 492.696 60.2166 489.884 60.2166 487.684C60.2166 485.239 60.2166 482.672 60.2166 479.983C61.9504 455.779 81.2707 435.487 118.177 419.107C91.674 411.773 78.4222 397.226 78.4222 375.467C78.4222 359.576 85.2339 347.352 98.8571 338.795C112.728 329.994 128.705 325.593 146.786 325.593C165.116 325.593 180.721 329.261 193.601 336.595C206.481 343.685 212.921 354.564 212.921 369.233ZM121.15 420.574C100.096 437.932 89.5685 459.568 89.5685 485.483C89.5685 495.751 90.807 504.92 93.284 512.987C95.7609 521.055 98.6094 527.167 101.829 531.323C105.297 535.235 109.632 538.291 114.834 540.491C120.035 542.692 123.503 543.914 125.237 544.159C127.218 544.159 130.686 544.159 135.64 544.159C140.842 544.159 146.415 543.058 152.359 540.858C158.552 538.413 163.506 535.357 167.221 531.69C171.184 527.778 174.528 523.622 177.253 519.222C180.225 514.576 182.331 509.931 183.569 505.286C186.542 493.796 188.028 484.261 188.028 476.682C188.028 468.859 186.913 462.013 184.684 456.146C182.455 450.034 178.491 445.022 172.794 441.11C167.345 437.199 162.267 434.265 157.561 432.309C152.855 430.353 146.415 428.275 138.241 426.075C130.067 423.63 124.37 421.796 121.15 420.574ZM164.992 431.209C177.377 414.584 183.569 393.681 183.569 368.5C183.569 358.231 180.845 349.063 175.395 340.996C169.946 332.683 159.667 328.527 144.557 328.527C133.411 328.527 124.741 332.806 118.549 341.362C111.613 351.142 108.146 363.61 108.146 378.768C108.146 395.881 111.985 407.25 119.664 412.873C124.122 416.296 128.457 418.863 132.668 420.574C137.126 422.041 142.575 423.752 149.016 425.708C155.703 427.419 161.029 429.253 164.992 431.209Z" fill="#EEF4FF"/>
<path d="M212.921 -78.1791C212.921 -51.6657 197.936 -30.5532 167.964 -14.8416C184.312 -11.4046 196.573 -6.12651 204.747 0.992836C212.921 8.11217 217.132 18.7912 217.38 33.0299C217.38 40.8857 215.274 49.2325 211.063 58.0703C207.1 66.6626 202.27 73.782 196.573 79.4284C191.124 85.0747 182.702 89.9846 171.308 94.158C160.162 98.3314 147.282 100.418 132.668 100.418C118.301 100.418 106.164 98.5769 96.2563 94.8945C86.5962 91.2121 79.413 87.0387 74.7068 82.3743C70.0005 77.4644 66.409 71.5725 63.932 64.6987C61.7027 57.5793 60.4642 52.424 60.2166 49.2325C60.2166 45.7956 60.2166 42.9724 60.2166 40.763C60.2166 38.308 60.2166 35.7303 60.2166 33.0299C61.9504 8.72591 81.2707 -11.6501 118.177 -28.0983C91.674 -35.4631 78.4222 -50.07 78.4222 -71.919C78.4222 -87.8762 85.2339 -100.151 98.8571 -108.743C112.728 -117.581 128.705 -122 146.786 -122C165.116 -122 180.721 -118.317 193.601 -110.953C206.481 -103.833 212.921 -92.9088 212.921 -78.1791ZM121.15 -26.6253C100.096 -9.19518 89.5685 12.5311 89.5685 38.5535C89.5685 48.8643 90.807 58.0703 93.284 66.1716C95.7609 74.273 98.6094 80.4103 101.829 84.5837C105.297 88.5116 109.632 91.5803 114.834 93.7898C120.035 95.9992 123.503 97.2267 125.237 97.4722C127.218 97.4722 130.686 97.4722 135.64 97.4722C140.842 97.4722 146.415 96.3675 152.359 94.158C158.552 91.7031 163.506 88.6344 167.221 84.952C171.184 81.0241 174.528 76.8506 177.253 72.4317C180.225 67.7673 182.331 63.103 183.569 58.4386C186.542 46.9003 188.028 37.326 188.028 29.7157C188.028 21.8599 186.913 14.986 184.684 9.09416C182.455 2.95679 178.491 -2.07584 172.794 -6.00375C167.345 -9.93167 162.267 -12.8776 157.561 -14.8416C152.855 -16.8055 146.415 -18.8922 138.241 -21.1016C130.067 -23.5566 124.37 -25.3978 121.15 -26.6253ZM164.992 -15.9463C177.377 -32.6399 183.569 -53.6297 183.569 -78.9156C183.569 -89.2264 180.845 -98.4324 175.395 -106.534C169.946 -114.881 159.667 -119.054 144.557 -119.054C133.411 -119.054 124.741 -114.758 118.549 -106.166C111.613 -96.3457 108.146 -83.8255 108.146 -68.6049C108.146 -51.4202 111.985 -40.0047 119.664 -34.3584C124.122 -30.9214 128.457 -28.3438 132.668 -26.6253C137.126 -25.1523 142.575 -23.4339 149.016 -21.4699C155.703 -19.7514 161.029 -17.9102 164.992 -15.9463Z" fill="#EEF4FF"/>
<path d="M292.881 590.913C292.881 617.426 277.896 638.539 247.925 654.251C264.272 657.688 276.533 662.966 284.707 670.085C292.881 677.204 297.092 687.883 297.34 702.122C297.34 709.978 295.234 718.325 291.024 727.163C287.061 735.755 282.23 742.874 276.533 748.521C271.084 754.167 262.662 759.077 251.268 763.25C240.122 767.424 227.242 769.51 212.628 769.51C198.261 769.51 186.124 767.669 176.217 763.987C166.556 760.304 159.373 756.131 154.667 751.466C149.961 746.557 146.369 740.665 143.892 733.791C141.663 726.672 140.424 721.516 140.177 718.325C140.177 714.888 140.177 712.065 140.177 709.855C140.177 707.4 140.177 704.823 140.177 702.122C141.911 677.818 161.231 657.442 198.138 640.994C171.634 633.629 158.382 619.022 158.382 597.173C158.382 581.216 165.194 568.941 178.817 560.349C192.688 551.511 208.665 547.092 226.747 547.092C245.076 547.092 260.681 550.775 273.561 558.14C286.441 565.259 292.881 576.183 292.881 590.913ZM201.11 642.467C180.056 659.897 169.529 681.623 169.529 707.646C169.529 717.956 170.767 727.163 173.244 735.264C175.721 743.365 178.57 749.503 181.79 753.676C185.257 757.604 189.592 760.673 194.794 762.882C199.995 765.091 203.463 766.319 205.197 766.564C207.179 766.564 210.646 766.564 215.6 766.564C220.802 766.564 226.375 765.46 232.32 763.25C238.512 760.795 243.466 757.727 247.181 754.044C251.145 750.116 254.488 745.943 257.213 741.524C260.186 736.86 262.291 732.195 263.529 727.531C266.502 715.993 267.988 706.418 267.988 698.808C267.988 690.952 266.873 684.078 264.644 678.186C262.415 672.049 258.452 667.016 252.755 663.088C247.305 659.161 242.228 656.215 237.521 654.251C232.815 652.287 226.375 650.2 218.201 647.991C210.027 645.536 204.33 643.694 201.11 642.467ZM244.952 653.146C257.337 636.452 263.529 615.463 263.529 590.177C263.529 579.866 260.805 570.66 255.355 562.558C249.906 554.212 239.627 550.038 224.517 550.038C213.371 550.038 204.702 554.334 198.509 562.927C191.574 572.746 188.106 585.267 188.106 600.487C188.106 617.672 191.945 629.087 199.624 634.734C204.082 638.171 208.417 640.748 212.628 642.467C217.086 643.94 222.536 645.658 228.976 647.622C235.664 649.341 240.989 651.182 244.952 653.146Z" fill="#EEF4FF"/>
<path d="M292.881 144.782C292.881 171.624 277.896 192.998 247.925 208.905C264.272 212.384 276.533 217.728 284.707 224.936C292.881 232.143 297.092 242.955 297.34 257.37C297.34 265.323 295.234 273.773 291.024 282.721C287.061 291.419 282.23 298.627 276.533 304.343C271.084 310.06 262.662 315.03 251.268 319.256C240.122 323.481 227.242 325.593 212.628 325.593C198.261 325.593 186.124 323.729 176.217 320.001C166.556 316.273 159.373 312.048 154.667 307.326C149.961 302.355 146.369 296.39 143.892 289.431C141.663 282.223 140.424 277.004 140.177 273.773C140.177 270.294 140.177 267.436 140.177 265.199C140.177 262.713 140.177 260.104 140.177 257.37C141.911 232.764 161.231 212.136 198.138 195.484C171.634 188.028 158.382 173.24 158.382 151.12C158.382 134.965 165.194 122.538 178.817 113.839C192.688 104.892 208.665 100.418 226.747 100.418C245.076 100.418 260.681 104.146 273.561 111.602C286.441 118.81 292.881 129.87 292.881 144.782ZM201.11 196.975C180.056 214.621 169.529 236.617 169.529 262.962C169.529 273.4 170.767 282.721 173.244 290.922C175.721 299.124 178.57 305.338 181.79 309.563C185.257 313.539 189.592 316.646 194.794 318.883C199.995 321.12 203.463 322.362 205.197 322.611C207.179 322.611 210.646 322.611 215.6 322.611C220.802 322.611 226.375 321.492 232.32 319.256C238.512 316.77 243.466 313.664 247.181 309.935C251.145 305.959 254.488 301.734 257.213 297.26C260.186 292.538 262.291 287.816 263.529 283.093C266.502 271.412 267.988 261.719 267.988 254.014C267.988 246.061 266.873 239.102 264.644 233.137C262.415 226.924 258.452 221.829 252.755 217.852C247.305 213.876 242.228 210.893 237.521 208.905C232.815 206.917 226.375 204.804 218.201 202.567C210.027 200.082 204.33 198.218 201.11 196.975ZM244.952 207.786C257.337 190.886 263.529 169.636 263.529 144.036C263.529 133.598 260.805 124.278 255.355 116.076C249.906 107.626 239.627 103.401 224.517 103.401C213.371 103.401 204.702 107.75 198.509 116.449C191.574 126.39 188.106 139.066 188.106 154.475C188.106 171.873 191.945 183.43 199.624 189.146C204.082 192.626 208.417 195.235 212.628 196.975C217.086 198.466 222.536 200.206 228.976 202.194C235.664 203.934 240.989 205.798 244.952 207.786Z" fill="#EEF4FF"/>
<path d="M384.79 369.233C384.79 395.637 369.804 416.662 339.833 432.309C356.181 435.732 368.442 440.988 376.616 448.078C384.79 455.168 389.001 465.803 389.248 479.983C389.248 487.806 387.143 496.118 382.932 504.92C378.969 513.476 374.139 520.566 368.442 526.189C362.992 531.812 354.571 536.702 343.177 540.858C332.03 545.014 319.15 547.092 304.536 547.092C290.17 547.092 278.033 545.259 268.125 541.592C258.465 537.924 251.282 533.768 246.575 529.123C241.869 524.233 238.277 518.366 235.801 511.52C233.571 504.431 232.333 499.296 232.085 496.118C232.085 492.696 232.085 489.884 232.085 487.684C232.085 485.239 232.085 482.672 232.085 479.983C233.819 455.779 253.139 435.487 290.046 419.107C263.542 411.773 250.291 397.226 250.291 375.467C250.291 359.576 257.102 347.352 270.726 338.795C284.597 329.994 300.573 325.593 318.655 325.593C336.984 325.593 352.589 329.261 365.469 336.595C378.35 343.685 384.79 354.564 384.79 369.233ZM293.018 420.574C271.964 437.932 261.437 459.568 261.437 485.483C261.437 495.751 262.676 504.92 265.153 512.987C267.629 521.055 270.478 527.167 273.698 531.323C277.166 535.235 281.5 538.291 286.702 540.491C291.904 542.692 295.371 543.914 297.105 544.159C299.087 544.159 302.555 544.159 307.509 544.159C312.71 544.159 318.283 543.058 324.228 540.858C330.42 538.413 335.374 535.357 339.09 531.69C343.053 527.778 346.397 523.622 349.121 519.222C352.094 514.576 354.199 509.931 355.438 505.286C358.41 493.796 359.896 484.261 359.896 476.682C359.896 468.859 358.782 462.013 356.552 456.146C354.323 450.034 350.36 445.022 344.663 441.11C339.214 437.199 334.136 434.265 329.43 432.309C324.723 430.353 318.283 428.275 310.109 426.075C301.935 423.63 296.238 421.796 293.018 420.574ZM336.861 431.209C349.245 414.584 355.438 393.681 355.438 368.5C355.438 358.231 352.713 349.063 347.264 340.996C341.814 332.683 331.535 328.527 316.426 328.527C305.279 328.527 296.61 332.806 290.418 341.362C283.482 351.142 280.014 363.61 280.014 378.768C280.014 395.881 283.854 407.25 291.532 412.873C295.991 416.296 300.325 418.863 304.536 420.574C308.995 422.041 314.444 423.752 320.884 425.708C327.572 427.419 332.897 429.253 336.861 431.209Z" fill="#EEF4FF"/>
<path d="M384.79 -78.1791C384.79 -51.6657 369.804 -30.5532 339.833 -14.8416C356.181 -11.4046 368.442 -6.12651 376.616 0.992836C384.79 8.11217 389.001 18.7912 389.248 33.0299C389.248 40.8857 387.143 49.2325 382.932 58.0703C378.969 66.6626 374.139 73.782 368.442 79.4284C362.992 85.0747 354.571 89.9846 343.177 94.158C332.03 98.3314 319.15 100.418 304.536 100.418C290.17 100.418 278.033 98.5769 268.125 94.8945C258.465 91.2121 251.282 87.0387 246.575 82.3743C241.869 77.4644 238.277 71.5725 235.801 64.6987C233.571 57.5793 232.333 52.424 232.085 49.2325C232.085 45.7956 232.085 42.9724 232.085 40.763C232.085 38.308 232.085 35.7303 232.085 33.0299C233.819 8.72591 253.139 -11.6501 290.046 -28.0983C263.542 -35.4631 250.291 -50.07 250.291 -71.919C250.291 -87.8762 257.102 -100.151 270.726 -108.743C284.597 -117.581 300.573 -122 318.655 -122C336.984 -122 352.589 -118.317 365.469 -110.953C378.35 -103.833 384.79 -92.9088 384.79 -78.1791ZM293.018 -26.6253C271.964 -9.19518 261.437 12.5311 261.437 38.5535C261.437 48.8643 262.676 58.0703 265.153 66.1716C267.629 74.273 270.478 80.4103 273.698 84.5837C277.166 88.5116 281.5 91.5803 286.702 93.7898C291.904 95.9992 295.371 97.2267 297.105 97.4722C299.087 97.4722 302.555 97.4722 307.509 97.4722C312.71 97.4722 318.283 96.3675 324.228 94.158C330.42 91.7031 335.374 88.6344 339.09 84.952C343.053 81.0241 346.397 76.8506 349.121 72.4317C352.094 67.7673 354.199 63.103 355.438 58.4386C358.41 46.9003 359.896 37.326 359.896 29.7157C359.896 21.8599 358.782 14.986 356.552 9.09416C354.323 2.95679 350.36 -2.07584 344.663 -6.00375C339.214 -9.93167 334.136 -12.8776 329.43 -14.8416C324.723 -16.8055 318.283 -18.8922 310.109 -21.1016C301.935 -23.5566 296.238 -25.3978 293.018 -26.6253ZM336.861 -15.9463C349.245 -32.6399 355.438 -53.6297 355.438 -78.9156C355.438 -89.2264 352.713 -98.4324 347.264 -106.534C341.814 -114.881 331.535 -119.054 316.426 -119.054C305.279 -119.054 296.61 -114.758 290.418 -106.166C283.482 -96.3457 280.014 -83.8255 280.014 -68.6049C280.014 -51.4202 283.854 -40.0047 291.532 -34.3584C295.991 -30.9214 300.325 -28.3438 304.536 -26.6253C308.995 -25.1523 314.444 -23.4339 320.884 -21.4699C327.572 -19.7514 332.897 -17.9102 336.861 -15.9463Z" fill="#EEF4FF"/>
</svg>
